<?xml version="1.0" encoding="UTF-8"?>
<svg width="554px" height="134px" viewBox="0 0 554 134" version="1.1" xmlns="http://www.w3.org/2000/svg" xmlns:xlink="http://www.w3.org/1999/xlink">
    <!-- Generator: Sketch 64 (93537) - https://sketch.com -->
    <title>Group 7</title>
    <desc>Created with Sketch.</desc>
    <g id="Page-1" stroke="none" stroke-width="1" fill="none" fill-rule="evenodd">
        <g id="Desktop-HD-Copy" transform="translate(-62.000000, -298.000000)">
            <g id="Group-7" transform="translate(63.000000, 299.000000)">
                <path d="M0.0590488948,35.4763789 C10.3009243,27.2484679 21.0796785,20.0541068 21.0796785,12.2619946 C21.0796785,8.11969744 19.1139719,5.28626902 14.05286,5.28626902 C9.28932351,5.28626902 6.72846618,8.338333 6.54976557,12.8067431 L0,12.8067431 C0.237749498,4.196772 6.31201608,0 13.9938111,0 C22.8068587,0 27.8089216,4.85047021 27.8089216,11.9888842 C27.8089216,21.6353498 17.0899933,28.9916631 10.1230007,34.8226807 L29,34.8226807 L29,40 L0.0590488948,40 L0.0590488948,35.4763789 Z" id="Stroke-138" stroke="#68CDDA"></path>
                <path d="M47,5.62175977 C39.3272444,5.62175977 38.4615848,12.5410734 38.4615848,19.8919314 C38.4615848,27.6210296 39.3272444,34.3789704 47,34.3789704 C54.6727556,34.3789704 55.5384152,27.6210296 55.5384152,19.8919314 C55.5384152,12.5410734 54.6727556,5.62175977 47,5.62175977 Z M47,0 C58.7692076,0 62,8.64841183 62,19.8919314 C62,31.3515882 58.7692076,40 47,40 C35.2307924,40 32,31.3515882 32,19.8919314 C32,8.64841183 35.2307924,0 47,0 Z" id="Stroke-139" stroke="#68CDDA"></path>
                <path d="M69.0598259,35.4763789 C79.3024782,27.2484679 90.0796785,20.0541068 90.0796785,12.2619946 C90.0796785,8.11969744 88.1155258,5.28626902 83.053637,5.28626902 C78.2893235,5.28626902 75.7292431,8.338333 75.5505425,12.8067431 L69,12.8067431 C69.2385265,4.196772 75.3120161,0 82.9938111,0 C91.8068587,0 96.8089216,4.85047021 96.8089216,11.9888842 C96.8089216,21.6353498 86.0899933,28.9916631 79.1230007,34.8226807 L98,34.8226807 L98,40 L69.0598259,40 L69.0598259,35.4763789 Z" id="Stroke-140" stroke="#68CDDA"></path>
                <polygon id="Stroke-141" stroke="#68CDDA" points="107.917947 5.70581477 103 5.70581477 103 0 114 0 114 40 107.917947 40"></polygon>
                <path d="M2.05904889,37.4763789 C12.3009243,29.2484679 23.0796785,22.0541068 23.0796785,14.2619946 C23.0796785,10.1196974 21.1147488,7.28626902 16.05286,7.28626902 C11.2893235,7.28626902 8.72846618,10.338333 8.54976557,14.8067431 L2,14.8067431 C2.2377495,6.196772 8.31201608,2 15.9938111,2 C24.8068587,2 29.8089216,6.85047021 29.8089216,13.9888842 C29.8089216,23.6353498 19.0899933,30.9916631 12.1230007,36.8226807 L31,36.8226807 L31,42 L2.05904889,42 L2.05904889,37.4763789 Z" id="Fill-142" fill="#FFFFFF"></path>
                <path d="M52,7.62175977 C44.3272444,7.62175977 43.4615848,14.5410734 43.4615848,21.8919314 C43.4615848,29.6210296 44.3272444,36.3789704 52,36.3789704 C59.6727556,36.3789704 60.5384152,29.6210296 60.5384152,21.8919314 C60.5384152,14.5410734 59.6727556,7.62175977 52,7.62175977 M52,2 C63.7692076,2 67,10.6484118 67,21.8919314 C67,33.3515882 63.7692076,42 52,42 C40.2307924,42 37,33.3515882 37,21.8919314 C37,10.6484118 40.2307924,2 52,2" id="Fill-143" fill="#FFFFFF"></path>
                <path d="M70.0598259,37.4763789 C80.3024782,29.2484679 91.0796785,22.0541068 91.0796785,14.2619946 C91.0796785,10.1196974 89.1155258,7.28626902 84.053637,7.28626902 C79.2893235,7.28626902 76.7292431,10.338333 76.5505425,14.8067431 L70,14.8067431 C70.2385265,6.196772 76.3120161,2 83.9938111,2 C92.8068587,2 97.8089216,6.85047021 97.8089216,13.9888842 C97.8089216,23.6353498 87.0899933,30.9916631 80.1230007,36.8226807 L99,36.8226807 L99,42 L70.0598259,42 L70.0598259,37.4763789 Z" id="Fill-144" fill="#FFFFFF"></path>
                <polygon id="Fill-145" fill="#FFFFFF" points="108.917947 7.70581477 104 7.70581477 104 2 115 2 115 42 108.917947 42"></polygon>
                <path d="M146.499597,18.7497555 L141.614228,32.2088026 L151.343087,32.2088026 L146.499597,18.7497555 Z M152.714631,36.0833031 L140.242685,36.0833031 L138.099597,42 L133,42 L143.671946,13 L149.328859,13 L160,42 L154.856913,42 L152.714631,36.0833031 Z" id="Fill-146" fill="#C8F1F4"></path>
                <polygon id="Fill-147" fill="#C8F1F4" points="184 13 184 42 179.807602 42 167.192398 20.3752026 167.192398 42 163 42 163 13 167.192398 13 179.807602 34.5834684 179.807602 13"></polygon>
                <polygon id="Fill-148" fill="#C8F1F4" points="211 13 211 42 206.806911 42 194.191706 20.3752026 194.191706 42 190 42 190 13 194.191706 13 206.806911 34.5834684 206.806911 13"></polygon>
                <path d="M218,13 L222.408583,13 L222.408583,31.3003546 C222.408583,35.7619549 224.767676,37.8678174 228.480741,37.8678174 C232.232324,37.8678174 234.591417,35.7619549 234.591417,31.3003546 L234.591417,13 L239,13 L239,31.2175985 C239,38.5298665 234.049974,42 228.442222,42 C222.795951,42 218,38.5298665 218,31.2175985 L218,13 Z" id="Fill-149" fill="#C8F1F4"></path>
                <path d="M255.500403,18.7497555 L250.614228,32.2088026 L260.343087,32.2088026 L255.500403,18.7497555 Z M261.714631,36.0833031 L249.242685,36.0833031 L247.100403,42 L242,42 L252.671141,13 L258.328054,13 L269,42 L263.856913,42 L261.714631,36.0833031 Z" id="Fill-150" fill="#C8F1F4"></path>
                <polygon id="Fill-151" fill="#C8F1F4" points="278.246069 13 278.246069 38.1620631 287 38.1620631 287 42 274 42 274 13"></polygon>
                <path d="M313.184429,13 C319.387289,13 324.733307,15.9822216 327,21.5367484 L321.140359,21.5367484 C319.557693,18.5140118 316.734776,17.0848651 313.184429,17.0848651 C307.281383,17.0848651 303.004407,21.0871114 303.004407,27.4996028 C303.004407,33.9128886 307.281383,37.9564443 313.184429,37.9564443 C316.734776,37.9564443 319.557693,36.5265032 321.140359,33.504561 L327,33.504561 C324.733307,39.0590878 319.387289,42 313.184429,42 C304.800881,42 298,36.0371456 298,27.4996028 C298,19.0049582 304.800881,13 313.184429,13" id="Fill-152" fill="#C8F1F4"></path>
                <path d="M344.500384,37.962196 C350.137205,37.962196 354.22129,33.8831414 354.22129,27.478978 C354.22129,21.075608 350.137205,17.0790546 344.500384,17.0790546 C338.863563,17.0790546 334.779478,21.075608 334.779478,27.478978 C334.779478,33.8831414 338.863563,37.962196 344.500384,37.962196 M344.500384,42 C336.494932,42 330,36.0035834 330,27.478978 C330,18.9964166 336.494932,13 344.500384,13 C352.587195,13 359,18.9964166 359,27.478978 C359,36.0035834 352.587195,42 344.500384,42" id="Fill-153" fill="#C8F1F4"></path>
                <polygon id="Fill-154" fill="#C8F1F4" points="386 13 386 42 381.80774 42 369.192951 20.3752026 369.192951 42 365 42 365 13 369.192951 13 381.80774 34.5834684 381.80774 13"></polygon>
                <polygon id="Fill-155" fill="#C8F1F4" points="391 13 407 13 407 16.8801388 395.460005 16.8801388 395.460005 25.4349481 404.457202 25.4349481 404.457202 29.3142753 395.460005 29.3142753 395.460005 42 391 42"></polygon>
                <polygon id="Fill-156" fill="#C8F1F4" points="425 16.8752026 415.86024 16.8752026 415.86024 25.3752026 423.984683 25.3752026 423.984683 29.2504052 415.86024 29.2504052 415.86024 38.1247974 425 38.1247974 425 42 412 42 412 13 425 13"></polygon>
                <path d="M442.175287,16.8800302 L437.357759,16.8800302 L437.357759,26.6024235 L442.175287,26.6024235 C445.576868,26.6024235 447.106322,24.5581239 447.106322,21.6787373 C447.106322,18.7587732 445.576868,16.8800302 442.175287,16.8800302 L442.175287,16.8800302 Z M442.175287,13 C448.482759,13 451.579023,16.9636201 451.579023,21.6787373 C451.579023,25.1002407 449.89727,28.7725136 445.423851,29.9825376 L452,42 L446.800287,42 L440.683908,30.3996754 L437.357759,30.3996754 L437.357759,42 L433,42 L433,13 L442.175287,13 Z" id="Fill-157" fill="#C8F1F4"></path>
                <polygon id="Fill-158" fill="#C8F1F4" points="471 16.8752026 461.859604 16.8752026 461.859604 25.3752026 469.984683 25.3752026 469.984683 29.2504052 461.859604 29.2504052 461.859604 38.1247974 471 38.1247974 471 42 458 42 458 13 471 13"></polygon>
                <polygon id="Fill-159" fill="#C8F1F4" points="500 13 500 42 495.807602 42 483.191706 20.3752026 483.191706 42 479 42 479 13 483.191706 13 495.807602 34.5834684 495.807602 13"></polygon>
                <path d="M518.184391,13 C524.386103,13 529.732629,15.9822216 532,21.5367484 L526.13988,21.5367484 C524.557302,18.5140118 521.734542,17.0848651 518.184391,17.0848651 C512.281672,17.0848651 508.004933,21.0871114 508.004933,27.4996028 C508.004933,33.9128886 512.281672,37.9564443 518.184391,37.9564443 C521.734542,37.9564443 524.557302,36.5265032 526.13988,33.504561 L532,33.504561 C529.732629,39.0590878 524.386103,42 518.184391,42 C509.801308,42 503,36.0371456 503,27.4996028 C503,19.0049582 509.801308,13 518.184391,13" id="Fill-160" fill="#C8F1F4"></path>
                <polygon id="Fill-161" fill="#C8F1F4" points="551 16.8752026 541.859793 16.8752026 541.859793 25.3752026 549.984633 25.3752026 549.984633 29.2504052 541.859793 29.2504052 541.859793 38.1247974 551 38.1247974 551 42 538 42 538 13 551 13"></polygon>
                <path d="M16.5,85.5219144 C22.9955464,85.5219144 27.9829731,80.9322819 27.9829731,73.499605 C27.9829731,66.0661382 22.9955464,61.5175833 16.5,61.5175833 C10.0044536,61.5175833 5.01702694,66.0661382 5.01702694,73.499605 C5.01702694,80.9322819 10.0044536,85.5219144 16.5,85.5219144 M16.5,88 C8.28606344,88 2,82.028738 2,73.499605 C2,65.0107597 8.28606344,59 16.5,59 C24.7564632,59 31,65.0107597 31,73.499605 C31,82.028738 24.7564632,88 16.5,88" id="Fill-162" fill="#FFFFFF"></path>
                <polygon id="Fill-163" fill="#FFFFFF" points="38 59 51 59 51 61.4070508 40.4074074 61.4070508 40.4074074 72.2351484 49.349391 72.2351484 49.349391 74.6413924 40.4074074 74.6413924 40.4074074 88 38 88"></polygon>
                <polygon id="Fill-164" fill="#FFFFFF" points="69 59 86 59 86 61.4070508 78.8151075 61.4070508 78.8151075 88 76.221781 88 76.221781 61.4070508 69 61.4070508"></polygon>
                <polygon id="Fill-165" fill="#FFFFFF" points="109.436765 74.4332063 95.5625475 74.4332063 95.5625475 88 93 88 93 59 95.5625475 59 95.5625475 72.0277693 109.436765 72.0277693 109.436765 59 112 59 112 88 109.436765 88"></polygon>
                <polygon id="Fill-166" fill="#FFFFFF" points="135 61.4020283 124.49305 61.4020283 124.49305 72.2147819 133.931168 72.2147819 133.931168 74.6184218 124.49305 74.6184218 124.49305 85.5963601 135 85.5963601 135 88 122 88 122 59 135 59"></polygon>
                <polygon id="Fill-167" fill="#FFFFFF" points="169 61.4020283 158.493719 61.4020283 158.493719 72.2147819 167.931168 72.2147819 167.931168 74.6184218 158.493719 74.6184218 158.493719 85.5963601 169 85.5963601 169 88 156 88 156 59 169 59"></polygon>
                <polygon id="Fill-168" fill="#FFFFFF" points="176 61 179.142079 61 190.478457 84.4008626 201.814835 61 205 61 205 88 202.027073 88 202.027073 66.4386628 191.582733 88 189.417267 88 178.972129 66.5170538 178.972129 88 176 88"></polygon>
                <polygon id="Fill-169" fill="#FFFFFF" points="228 61.4020283 217.493178 61.4020283 217.493178 72.2147819 226.931782 72.2147819 226.931782 74.6184218 217.493178 74.6184218 217.493178 85.5963601 228 85.5963601 228 88 215 88 215 59 228 59"></polygon>
                <path d="M241.828855,61.447397 L236.609618,61.447397 L236.609618,73.5205765 L241.866686,73.5205765 C246.115635,73.5205765 248.017679,70.9481065 248.017679,67.4210468 C248.017679,63.7713348 246.227726,61.447397 241.828855,61.447397 L241.828855,61.447397 Z M241.828855,59 C247.868458,59 250.701558,62.6505189 250.701558,67.4210468 C250.701558,71.4056318 248.688824,74.7648516 244.289252,75.6774813 L251,88 L247.868458,88 L241.419023,75.8848605 L236.609618,75.8848605 L236.609618,88 L234,88 L234,59 L241.828855,59 Z" id="Fill-170" fill="#FFFFFF"></path>
                <path d="M284.069769,67.6104982 L280.603052,67.6104982 C278.954692,63.9545913 275.361667,61.5997385 270.627102,61.5997385 C264.07418,61.5997385 259.044102,66.1475035 259.044102,73.499605 C259.044102,80.8509166 264.07418,85.4405492 270.627102,85.4405492 C276.841615,85.4405492 281.406974,81.4196835 281.871692,74.9610199 L269.443461,74.9610199 L269.443461,72.6464547 L285,72.6464547 L285,74.718504 C284.534487,82.2317561 278.701282,88 270.627102,88 C262.341615,88 256,82.028738 256,73.499605 C256,65.0107597 262.341615,59 270.627102,59 C276.967923,59 281.955898,62.208793 284.069769,67.6104982" id="Fill-171" fill="#FFFFFF"></path>
                <polygon id="Fill-172" fill="#FFFFFF" points="293 88 296 88 296 59 293 59"></polygon>
                <polygon id="Fill-173" fill="#FFFFFF" points="323 59 323 88 320.476965 88 306.523713 63.6051087 306.523713 88 304 88 304 59 306.523713 59 320.476965 83.3529314 320.476965 59"></polygon>
                <path d="M358.069744,67.6104982 L354.602931,67.6104982 C352.954527,63.9545913 349.361403,61.5997385 344.626709,61.5997385 C338.073606,61.5997385 333.043391,66.1475035 333.043391,73.499605 C333.043391,80.8509166 338.073606,85.4405492 344.626709,85.4405492 C350.841392,85.4405492 355.406876,81.4196835 355.871607,74.9610199 L343.443035,74.9610199 L343.443035,72.6464547 L359,72.6464547 L359,74.718504 C358.534475,82.2317561 352.701109,88 344.626709,88 C336.340994,88 330,82.028738 330,73.499605 C330,65.0107597 336.340994,59 344.626709,59 C350.967703,59 355.955814,62.208793 358.069744,67.6104982" id="Fill-174" fill="#FFFFFF"></path>
                <polygon id="Fill-175" fill="#FFFFFF" points="378 61 381.142079 61 392.478457 84.4008626 403.814835 61 407 61 407 88 404.027073 88 404.027073 66.4386628 393.582733 88 391.417267 88 380.972129 66.5170538 380.972129 88 378 88"></polygon>
                <path d="M423,64.4430194 L417.367018,79.2349128 L428.632982,79.2349128 L423,64.4430194 Z M429.489741,81.5043831 L416.510259,81.5043831 L414.020518,88 L411,88 L421.408437,61 L424.632982,61 L435,88 L431.979482,88 L429.489741,81.5043831 Z" id="Fill-176" fill="#FFFFFF"></path>
                <path d="M448.828855,61.447397 L443.609618,61.447397 L443.609618,73.5205765 L448.865985,73.5205765 C453.116336,73.5205765 455.016978,70.9481065 455.016978,67.4210468 C455.016978,63.7713348 453.227726,61.447397 448.828855,61.447397 L448.828855,61.447397 Z M448.828855,59 C454.868458,59 457.701558,62.6505189 457.701558,67.4210468 C457.701558,71.4056318 455.688824,74.7648516 451.289252,75.6774813 L458,88 L454.868458,88 L448.419023,75.8848605 L443.609618,75.8848605 L443.609618,88 L441,88 L441,59 L448.828855,59 Z" id="Fill-177" fill="#FFFFFF"></path>
                <polygon id="Fill-178" fill="#FFFFFF" points="467.559103 74.5998052 467.559103 88 465 88 465 59 467.559103 59 467.559103 72.5664162 478.636411 59 481.890079 59 469.935462 73.4798275 482 88 478.636411 88"></polygon>
                <polygon id="Fill-179" fill="#FFFFFF" points="505 61.4020283 494.49305 61.4020283 494.49305 72.2147819 503.931168 72.2147819 503.931168 74.6184218 494.49305 74.6184218 494.49305 85.5963601 505 85.5963601 505 88 492 88 492 59 505 59"></polygon>
                <polygon id="Fill-180" fill="#FFFFFF" points="511 59 528 59 528 61.4070508 520.815107 61.4070508 520.815107 88 518.221781 88 518.221781 61.4070508 511 61.4070508"></polygon>
                <path d="M544.703041,88 C539.540396,88 536.147603,84.7501294 536,80.4045926 L538.728925,80.4045926 C538.950677,82.7594454 540.536198,85.6032797 544.703041,85.6032797 C548.280165,85.6032797 550.38195,83.2887146 550.38195,80.363515 C550.38195,71.9971126 536.221751,77.2779548 536.221751,66.5954074 C536.221751,62.208793 539.503669,59 544.481983,59 C549.386842,59 552.336825,62.0057748 552.778942,65.9049876 L549.976561,65.9049876 C549.682048,63.9143036 547.948231,61.4780856 544.371107,61.437008 C541.346975,61.3967203 538.839801,63.2238838 538.839801,66.5140421 C538.839801,74.718504 553,69.6825475 553,80.2418621 C553,84.1007872 550.160892,88 544.703041,88" id="Fill-181" fill="#FFFFFF"></path>
                <path d="M15.9065206,104 C22.2503821,104 26.9666327,107.172209 29,112.622712 L25.6653082,112.622712 C24.080489,108.839794 20.7450331,106.481601 15.9065206,106.481601 C9.68492104,106.481601 4.92740703,111.076161 4.92740703,118.520172 C4.92740703,125.923048 9.68492104,130.51919 15.9065206,130.51919 C20.7450331,130.51919 24.080489,128.160206 25.6653082,124.458769 L29,124.458769 C26.9666327,129.827791 22.2503821,133 15.9065206,133 C8.01757514,133 2,127.061404 2,118.520172 C2,109.979732 8.01757514,104 15.9065206,104" id="Fill-182" fill="#FFFFFF"></path>
                <path d="M43.5,130.521914 C49.9955464,130.521914 54.9829731,125.932282 54.9829731,118.499605 C54.9829731,111.066138 49.9955464,106.517583 43.5,106.517583 C37.0044536,106.517583 32.0170269,111.066138 32.0170269,118.499605 C32.0170269,125.932282 37.0044536,130.521914 43.5,130.521914 M43.5,133 C35.2860634,133 29,127.028738 29,118.499605 C29,110.01076 35.2860634,104 43.5,104 C51.7564632,104 58,110.01076 58,118.499605 C58,127.028738 51.7564632,133 43.5,133" id="Fill-183" fill="#FFFFFF"></path>
                <polygon id="Fill-184" fill="#FFFFFF" points="83 104 83 133 80.4769648 133 66.5237127 108.605109 66.5237127 133 64 133 64 104 66.5237127 104 80.4769648 128.354545 80.4769648 104"></polygon>
                <polygon id="Fill-185" fill="#FFFFFF" points="91 104 104 104 104 106.406244 93.4074074 106.406244 93.4074074 117.235148 102.349391 117.235148 102.349391 119.640585 93.4074074 119.640585 93.4074074 133 91 133"></polygon>
                <polygon id="Fill-186" fill="#FFFFFF" points="125 106.402028 114.493178 106.402028 114.493178 117.215588 123.931782 117.215588 123.931782 119.618422 114.493178 119.618422 114.493178 130.597166 125 130.597166 125 133 112 133 112 104 125 104"></polygon>
                <path d="M139.828855,106.448136 L134.609618,106.448136 L134.609618,118.520173 L139.865985,118.520173 C144.115635,118.520173 146.017679,115.948581 146.017679,112.422426 C146.017679,108.771202 144.227726,106.448136 139.828855,106.448136 L139.828855,106.448136 Z M139.828855,104 C145.868458,104 148.701558,107.651224 148.701558,112.422426 C148.701558,116.40448 146.688824,119.76522 142.289252,120.677824 L149,133 L145.868458,133 L139.419023,120.885198 L134.609618,120.885198 L134.609618,133 L132,133 L132,104 L139.828855,104 Z" id="Fill-187" fill="#FFFFFF"></path>
                <polygon id="Fill-188" fill="#FFFFFF" points="165 106.402028 154.49305 106.402028 154.49305 117.215588 163.931168 117.215588 163.931168 119.618422 154.49305 119.618422 154.49305 130.597166 165 130.597166 165 133 152 133 152 104 165 104"></polygon>
                <polygon id="Fill-189" fill="#FFFFFF" points="194 104 194 133 191.476965 133 177.523713 108.605109 177.523713 133 175 133 175 104 177.523713 104 191.476965 128.354545 191.476965 104"></polygon>
                <path d="M212.906521,104 C219.250382,104 223.966633,107.172209 226,112.622712 L222.665308,112.622712 C221.080489,108.839794 217.745033,106.481601 212.906521,106.481601 C206.684921,106.481601 201.927407,111.076161 201.927407,118.520172 C201.927407,125.923048 206.684921,130.51919 212.906521,130.51919 C217.745033,130.51919 221.080489,128.160206 222.665308,124.458769 L226,124.458769 C223.966633,129.827791 219.250382,133 212.906521,133 C205.017575,133 199,127.061404 199,118.520172 C199,109.979732 205.017575,104 212.906521,104" id="Fill-190" fill="#FFFFFF"></path>
                <polygon id="Fill-191" fill="#FFFFFF" points="245 106.402028 234.49305 106.402028 234.49305 117.215588 243.931168 117.215588 243.931168 119.618422 234.49305 119.618422 234.49305 130.597166 245 130.597166 245 133 232 133 232 104 245 104"></polygon>
                <path d="M270.5,119.225827 L264.542764,119.225827 L264.542764,130.552603 L270.608537,130.552603 C274.277626,130.552603 276.457236,128.436044 276.457236,124.951752 C276.457236,121.466652 274.132228,119.225827 270.5,119.225827 M270.354602,106.448204 L264.542764,106.448204 L264.542764,116.82039 L270.463138,116.82039 C273.914472,116.82039 275.839464,114.828098 275.839464,111.592337 C275.839464,108.480843 274.023691,106.448204 270.354602,106.448204 M270.790797,133 L262,133 L262,104 L270.536179,104 C275.876325,104 278.419089,107.236568 278.419089,111.302652 C278.419089,115.11859 276.311837,117.235148 273.878293,118.022705 C276.711171,118.60369 279,121.590918 279,125.242244 C279,129.59882 276.13026,133 270.790797,133" id="Fill-192" fill="#FFFFFF"></path>
                <path d="M297.5,130.521914 C303.996334,130.521914 308.982973,125.932282 308.982973,118.499605 C308.982973,111.066138 303.996334,106.517583 297.5,106.517583 C291.003666,106.517583 286.017027,111.066138 286.017027,118.499605 C286.017027,125.932282 291.003666,130.521914 297.5,130.521914 M297.5,133 C289.286063,133 283,127.028738 283,118.499605 C283,110.01076 289.286063,104 297.5,104 C305.755676,104 312,110.01076 312,118.499605 C312,127.028738 305.755676,133 297.5,133" id="Fill-193" fill="#FFFFFF"></path>
                <path d="M328,109.443019 L322.367018,124.234913 L333.632982,124.234913 L328,109.443019 Z M334.489741,126.504383 L321.510259,126.504383 L319.020518,133 L316,133 L326.408437,106 L329.632982,106 L340,133 L336.979482,133 L334.489741,126.504383 Z" id="Fill-194" fill="#FFFFFF"></path>
                <path d="M351.828855,106.448136 L346.609618,106.448136 L346.609618,118.520173 L351.865985,118.520173 C356.115635,118.520173 358.017679,115.948581 358.017679,112.422426 C358.017679,108.771202 356.227726,106.448136 351.828855,106.448136 L351.828855,106.448136 Z M351.828855,104 C357.868458,104 360.701558,107.651224 360.701558,112.422426 C360.701558,116.40448 358.688824,119.76522 354.289252,120.677824 L361,133 L357.868458,133 L351.419023,120.885198 L346.609618,120.885198 L346.609618,133 L344,133 L344,104 L351.828855,104 Z" id="Fill-195" fill="#FFFFFF"></path>
                <path d="M373.610454,130.593756 C381.845725,130.593756 386.046996,126.030607 386.046996,118.562537 C386.046996,111.053313 381.845725,106.406244 373.610454,106.406244 L367.911578,106.406244 L367.911578,130.593756 L373.610454,130.593756 Z M389,118.562537 C389,127.566182 383.301905,133 373.610454,133 L365,133 L365,104 L373.610454,104 C383.301905,104 389,109.476585 389,118.562537 L389,118.562537 Z" id="Fill-196" fill="#FFFFFF"></path>
            </g>
        </g>
    </g>
</svg>