<?xml version="1.0" encoding="UTF-8"?>
<svg width="41px" height="28px" viewBox="0 0 41 28" version="1.1" xmlns="http://www.w3.org/2000/svg" xmlns:xlink="http://www.w3.org/1999/xlink">
    <!-- Generator: Sketch 64 (93537) - https://sketch.com -->
    <title>canada</title>
    <desc>Created with Sketch.</desc>
    <g id="Page-1" stroke="none" stroke-width="1" fill="none" fill-rule="evenodd">
        <g id="Desktop-HD-Copy" transform="translate(-1251.000000, -5350.000000)" fill-rule="nonzero">
            <g id="canada" transform="translate(1251.000000, 5350.000000)">
                <g id="Group" fill="#D32027">
                    <path d="M13.2258065,0 L3.96774194,0 C1.78548387,0 0,1.6 0,3.86666667 L0,24.1333333 C0,26.4 1.78548387,28 3.96774194,28 L13.2258065,28 L13.2258065,0 Z" id="Path"></path>
                    <path d="M37.0322581,0 L27.7741935,0 L27.7741935,28 L37.0322581,28 C39.2145161,28 41,26.4 41,24.1333333 L41,3.86666667 C41,1.6 39.2145161,0 37.0322581,0 Z" id="Path"></path>
                </g>
                <g id="Group" transform="translate(4.000000, 0.000000)" fill="#BC1723">
                    <path d="M33.0357143,0 L23.7857143,0 L23.7857143,20.0666667 L32.9035714,28 C35.0839286,28 37,26.4 37,24.1333333 L37,3.86666667 C37,1.6 35.2160714,0 33.0357143,0 Z" id="Path"></path>
                    <polygon id="Path" points="9.25 0 0 0 9.25 7.93333333"></polygon>
                </g>
                <g id="Group" fill="#AA0E21">
                    <path d="M27.7741935,28 L37.0322581,28 C39.2145161,28 41,26.6666667 41,24 L27.7741935,24 L27.7741935,28 Z" id="Path"></path>
                    <path d="M0,24 C0,26.6666667 1.78548387,28 3.96774194,28 L13.2258065,28 L13.2258065,24 L0,24 Z" id="Path"></path>
                    <path d="M37.0322581,0 L27.7741935,0 L27.7741935,7.06666667 L41,11.2 L41,3.86666667 C41,1.6 39.2145161,0 37.0322581,0 Z" id="Path"></path>
                    <polygon id="Path" points="13.2258065 0 3.96774194 0 13.2258065 2.73333333"></polygon>
                </g>
                <rect id="Rectangle" fill="#FFFFFF" x="12" y="0" width="17" height="28"></rect>
                <polygon id="Path" fill="#E9F3F4" points="29 20 29 0 12 0 12 7.90697674"></polygon>
                <g id="Group" transform="translate(12.000000, 0.000000)" fill="#D3E9EA">
                    <rect id="Rectangle" x="0" y="24" width="17" height="4"></rect>
                    <polygon id="Path" points="17 7.06666667 17 0 0 0 0 2.73333333"></polygon>
                </g>
                <g id="Group" transform="translate(14.000000, 7.000000)">
                    <path d="M11.952,6.66956522 C11.76,6.4757764 11.312,6.4757764 11.248,6.15279503 C11.12,5.31304348 11.504,4.86086957 11.76,4.27950311 C10.544,4.5378882 9.584,5.05465839 9.584,3.63354037 C8.88,4.47329193 8.112,5.37763975 7.856,5.18385093 C7.408,4.92546584 8.304,2.72919255 8.368,1.56645963 C7.92,1.76024845 7.152,2.21242236 7.152,2.21242236 C7.152,2.21242236 6.64,0.726708075 6,0.0161490683 L6,0.0161490683 L6,0.0161490683 L6,0.0161490683 L6,0.0161490683 C5.36,0.726708075 4.848,2.21242236 4.848,2.21242236 C4.848,2.21242236 4.016,1.76024845 3.632,1.56645963 C3.696,2.72919255 4.592,4.92546584 4.144,5.18385093 C3.824,5.31304348 3.12,4.47329193 2.416,3.63354037 C2.416,4.99006211 1.456,4.5378882 0.24,4.27950311 C0.496,4.86086957 0.88,5.31304348 0.752,6.15279503 C0.688,6.4757764 0.24,6.4757764 0.048,6.66956522 C1.456,8.09068323 3.888,9.1242236 2.736,10.2869565 L5.872,9.96397516 C6,10.9975155 5.616,12.3540373 5.936,13 C6,13 6,13 6.064,13 L6.064,13 C6.128,13 6.128,13 6.192,13 C6.512,12.3540373 6.128,10.9975155 6.256,9.96397516 L9.392,10.2869565 C8.112,9.05962733 10.544,8.09068323 11.952,6.66956522 Z" id="Path" fill="#D32027"></path>
                    <path d="M11.952,6.66956522 C11.76,6.4757764 11.312,6.4757764 11.248,6.15279503 C11.12,5.31304348 11.504,4.86086957 11.76,4.27950311 C10.544,4.5378882 9.584,5.05465839 9.584,3.63354037 C8.88,4.47329193 8.112,5.37763975 7.856,5.18385093 C7.408,4.92546584 8.304,2.72919255 8.368,1.56645963 C7.92,1.76024845 7.152,2.21242236 7.152,2.21242236 C7.152,2.21242236 6.64,0.726708075 6,0.0161490683 L6,0.0161490683 L6,0.0161490683 L6,0.0161490683 L6,0.0161490683 C6,0.0807453416 6,0.0807453416 6,0.145341615 L6,13 C6,13 5.936,13 6,13 L6,13 C6.064,13 6.064,13 6.128,13 C6.448,12.3540373 6.064,10.9975155 6.192,9.96397516 L9.328,10.2869565 C8.112,9.05962733 10.544,8.09068323 11.952,6.66956522 Z" id="Path" fill="#AA0E21"></path>
                </g>
            </g>
        </g>
    </g>
</svg>