<?xml version="1.0" encoding="UTF-8"?>
<svg width="15px" height="26px" viewBox="0 0 15 26" version="1.1" xmlns="http://www.w3.org/2000/svg" xmlns:xlink="http://www.w3.org/1999/xlink">
    <!-- Generator: Sketch 64 (93537) - https://sketch.com -->
    <title>facebook copy</title>
    <desc>Created with Sketch.</desc>
    <g id="Page-1" stroke="none" stroke-width="1" fill="none" fill-rule="evenodd">
        <g id="Desktop-HD-Copy" transform="translate(-496.000000, -11628.000000)" fill="#E2E2E2" fill-rule="nonzero">
            <g id="facebook-copy" transform="translate(496.000000, 11628.000000)">
                <path d="M9.26526334,26 L5.03306717,26 C4.32615534,26 3.75110897,25.4342651 3.75110897,24.7388 L3.75110897,15.3474426 L1.28195825,15.3474426 C0.575046376,15.3474426 0,14.7815094 0,14.0862427 L0,10.062027 C0,9.3665619 0.575046376,8.80082704 1.28195825,8.80082704 L3.75110897,8.80082704 L3.75110897,6.78564453 C3.75110897,4.78752137 4.38886203,3.08753966 5.59520933,1.86978147 C6.80700058,0.646469129 8.50048394,0 10.4925801,0 L13.7202597,0.00515744531 C14.4259618,0.00634765625 15,0.57208252 15,1.26635742 L15,5.00274658 C15,5.6982117 14.4251553,6.26394651 13.7184451,6.26394651 L11.5452859,6.26474002 C10.8825309,6.26474002 10.7137673,6.39546202 10.6776756,6.43553163 C10.6181951,6.50198362 10.5474232,6.68983458 10.5474232,7.20855713 L10.5474232,8.80062869 L13.5551254,8.80062869 C13.781555,8.80062869 14.0009275,8.85557557 14.1894508,8.95912169 C14.5961368,9.18267822 14.8489798,9.60539247 14.8489798,10.0622254 L14.8473667,14.086441 C14.8473667,14.7815094 14.2723204,15.3472443 13.5654085,15.3472443 L10.5474232,15.3472443 L10.5474232,24.7388 C10.5474232,25.4342651 9.97217517,26 9.26526334,26 L9.26526334,26 Z M5.30042746,24.475769 L8.99790305,24.475769 L8.99790305,14.6650696 C8.99790305,14.2006988 9.38200664,13.8230133 9.85381889,13.8230133 L13.2980482,13.8230133 L13.2994597,10.325058 L9.85361727,10.325058 C9.38180497,10.325058 8.99790305,9.94737245 8.99790305,9.48300173 L8.99790305,7.20855713 C8.99790305,6.6130676 9.05939998,5.93585205 9.51629164,5.42684939 C10.0683523,4.81152344 10.9383821,4.74050901 11.5448826,4.74050901 L13.4506816,4.7397156 L13.4506816,1.5289917 L10.4913703,1.52423096 C7.28990244,1.52423096 5.30042746,3.54040527 5.30042746,6.78564453 L5.30042746,9.48300173 C5.30042746,9.94717405 4.91652553,10.325058 4.44471329,10.325058 L1.5493185,10.325058 L1.5493185,13.8230133 L4.44471329,13.8230133 C4.91652553,13.8230133 5.30042746,14.2006988 5.30042746,14.6650696 L5.30042746,24.475769 Z" id="Shape"></path>
            </g>
        </g>
    </g>
</svg>