<?xml version="1.0" encoding="UTF-8"?>
<svg width="42px" height="28px" viewBox="0 0 42 28" version="1.1" xmlns="http://www.w3.org/2000/svg" xmlns:xlink="http://www.w3.org/1999/xlink">
    <!-- Generator: Sketch 64 (93537) - https://sketch.com -->
    <title>Group 33</title>
    <desc>Created with Sketch.</desc>
    <g id="Page-1" stroke="none" stroke-width="1" fill="none" fill-rule="evenodd">
        <g id="Desktop-HD-Copy" transform="translate(-691.000000, -6429.000000)">
            <g id="Group-33" transform="translate(691.000000, 6429.000000)">
                <path d="M2.39843333,0 L39.6015667,0 C40.9261533,0 42,1.0738 42,2.39843333 L42,25.6015667 C42,26.9261533 40.9261533,28 39.6015667,28 L2.39843333,28 C1.0738,28 0,26.9261533 0,25.6015667 L0,2.39843333 C0,1.0738 1.0738,0 2.39843333,0" id="Fill-1" fill="#DE2910"></path>
                <path d="M20.9322653,14 C15.758751,11.965664 18.0519852,5.69638237 23,6.01146072 C21.9990139,6.49011456 21.8539235,7.38326335 22.4255856,8.21060694 C23.0657134,9.13690983 22.3666549,10.6273813 21.5012733,10.9894699 C20.0791221,11.5850548 19.7943969,13.173068 20.9322653,14" id="Fill-3" fill="#FFFFFF"></path>
                <polygon id="Fill-5" fill="#DE2910" points="20.6313414 9.68981744 20.4319208 10 20.3596982 9.63908821 20 9.54700798 20.3241932 9.36711945 20.30159 9 20.5739406 9.24994159 20.9194233 9.11504188 20.7641312 9.44908721 21 9.73293729"></polygon>
                <path d="M21,13.8781282 C20.2173049,13.5348911 19.5862182,12.8193671 19.311282,11.9643735 C18.9968146,10.9836209 19.1776872,9.92921981 19.8082206,9.0731756 L19.6724739,9 C19.0182709,9.88924376 18.8306356,10.9826228 19.1569071,12.0004623 C19.447582,12.9052027 20.0922557,13.6340695 20.9267165,14 L21,13.8781282 Z" id="Fill-7" fill="#DE2910"></path>
                <path d="M21.2695716,14 C23.9756275,18.2100902 18.5492536,21.8018745 15,19.0163143 C16.0377288,19.1670189 16.6736926,18.5618345 16.7298232,17.6380325 C16.7926492,16.6037081 18.1988958,15.8289327 19.0655271,15.9985667 C20.4900712,16.2770023 21.6410701,15.2147999 21.2695716,14" id="Fill-9" fill="#FFFFFF"></path>
                <polygon id="Fill-11" fill="#DE2910" points="18.5740173 18.2496828 18.9193304 18.1148428 18.7636835 18.4489884 19 18.7330574 18.6310418 18.6897576 18.431574 19 18.3594934 18.6390465 18 18.546972 18.32379 18.367163 18.3013911 18"></polygon>
                <path d="M20.6621346,14.0529007 C20.9440018,14.6268526 20.957052,15.3933054 20.6974444,16.1032619 C20.399079,16.9172669 19.7802195,17.5693787 19,17.8910076 L19.0422059,18 C19.8522794,17.6655168 20.4940094,16.9893142 20.8037229,16.1446116 C21.0786067,15.3934852 21.0642907,14.6118858 20.763743,14 L20.6621346,14.0529007 Z" id="Fill-13" fill="#DE2910"></path>
                <path d="M21,14.1509448 C25.8868225,12.9276141 27.7674672,19.466461 24.013861,22 C24.46713,21.0338992 24.0679513,20.2050159 23.1879316,19.836282 C22.2025853,19.4235893 21.8666288,17.7820356 22.2877159,16.9900211 C22.9793857,15.6881318 22.2889452,14.1992049 21,14.1509448" id="Fill-15" fill="#FFFFFF"></path>
                <polygon id="Fill-17" fill="#DE2910" points="23.3238881 17.367114 23.3011792 17 23.5737871 17.2499165 23.9195081 17.1149276 23.7639151 17.4493291 24 17.7332265 23.6313005 17.6895988 23.4318059 18 23.3592655 17.6392283 23 17.5469324"></polygon>
                <path d="M21.0220833,14.1432335 C21.8027825,14.0429809 22.7032283,14.2705001 23.4311485,14.7514115 C24.2654548,15.3034627 24.7854057,16.1233713 24.8561274,17 L25,16.9922883 C24.9259106,16.0818922 24.3867473,15.2316385 23.5209722,14.6586881 C22.7509282,14.1497132 21.8323189,13.9187261 21,14.0255953 L21.0220833,14.1432335 Z" id="Fill-19" fill="#DE2910"></path>
                <path d="M21,13.8835103 C21.4367956,8.76875794 27.9033443,8.85905316 29,13.2558462 C28.274404,12.5310587 27.4041174,12.6760701 26.7962387,13.4241278 C26.1156575,14.2617619 24.5350925,14.106553 23.9557946,13.464244 C23.0033382,12.4087783 21.4485405,12.6433662 21,13.8835103" id="Fill-21" fill="#FFFFFF"></path>
                <polygon id="Fill-23" fill="#DE2910" points="25.3593129 12.6392135 25 12.5471389 25.3240822 12.3674634 25.3013136 12 25.5741664 12.2499499 25.9195352 12.1151766 25.7637925 12.4491554 26 12.7330907 25.6314247 12.6899579 25.4318289 13"></polygon>
                <path d="M21.1222973,14 C21.2305838,13.4501496 21.6952185,12.9063322 22.3647428,12.5450197 C23.1329597,12.1311237 24.0827941,11.9986334 24.9694138,12.1822672 L25,12.0837946 C24.079137,11.8934663 23.094157,12.0308608 22.2968262,12.4603645 C21.5883568,12.8425002 21.1154106,13.3975661 21,13.9837695 L21.1222973,14 Z" id="Fill-25" fill="#DE2910"></path>
                <path d="M21,14.3546326 C17.2692384,18.3556373 11.4879937,14.3371203 13.3655884,10 C13.5480984,11.047217 14.4286431,11.4569029 15.4656249,11.2034379 C16.6266397,10.9195347 17.9528657,12.0128953 18.0570076,12.9020383 C18.2287993,14.3633888 19.785992,15.1158154 21,14.3546326" id="Fill-27" fill="#FFFFFF"></path>
                <polygon id="Fill-29" fill="#DE2910" points="16.7639095 12.4491472 17 12.732935 16.6312812 12.6894756 16.4317661 13 16.3593224 12.6388731 16 12.5467138 16.3240267 12.3672686 16.3012933 12 16.573892 12.2496078 16.9192038 12.1150906"></polygon>
                <path d="M20.9050904,14.3590896 C20.3810222,14.7276405 19.5483171,14.9305279 18.6776586,14.9021441 C17.6791457,14.8690845 16.7403257,14.5402783 16.1036879,14 L16,14.061005 C16.6616303,14.6217766 17.635099,14.9627473 18.6713588,14.997122 C19.5925704,15.0272593 20.4413347,14.8195864 21,14.4267066 L20.9050904,14.3590896 Z" id="Fill-31" fill="#DE2910"></path>
            </g>
        </g>
    </g>
</svg>