<?xml version="1.0" encoding="UTF-8"?>
<svg width="26px" height="26px" viewBox="0 0 26 26" version="1.1" xmlns="http://www.w3.org/2000/svg" xmlns:xlink="http://www.w3.org/1999/xlink">
    <!-- Generator: Sketch 64 (93537) - https://sketch.com -->
    <title>instagram copy</title>
    <desc>Created with Sketch.</desc>
    <g id="Page-1" stroke="none" stroke-width="1" fill="none" fill-rule="evenodd">
        <g id="Desktop-HD-Copy" transform="translate(-547.000000, -11628.000000)" fill="#E2E2E2" fill-rule="nonzero">
            <g id="instagram-copy" transform="translate(547.000000, 11628.000000)">
                <path d="M18.447457,0 L7.55259375,0 C3.38807422,0 0,3.38807422 0,7.55259375 L0,18.4474063 C0,22.6119258 3.38807422,26 7.55259375,26 L18.4474063,26 C22.6119258,26 26,22.6119258 26,18.447457 L26,7.55259375 C26,3.38807422 22.6119258,0 18.447457,0 Z M23.96875,18.4474063 C23.96875,21.4918945 21.4918945,23.96875 18.447457,23.96875 L7.55259375,23.96875 C4.50810547,23.96875 2.03125,21.4918945 2.03125,18.447457 L2.03125,7.55259375 C2.03125,4.50810547 4.50810547,2.03125 7.55259375,2.03125 L18.4474063,2.03125 C21.4918945,2.03125 23.96875,4.50810547 23.96875,7.55259375 L23.96875,18.4474063 Z" id="Shape"></path>
                <path d="M13,6 C9.14015942,6 6,9.14015942 6,13 C6,16.8598406 9.14015942,20 13,20 C16.8598406,20 20,16.8598406 20,13 C20,9.14015942 16.8598406,6 13,6 Z M13,17.9710145 C10.2589928,17.9710145 8.02898551,15.7410072 8.02898551,13 C8.02898551,10.2589928 10.2589928,8.02898551 13,8.02898551 C15.7410072,8.02898551 17.9710145,10.2589928 17.9710145,13 C17.9710145,15.7410072 15.7410072,17.9710145 13,17.9710145 Z" id="Shape"></path>
                <circle id="Oval" cx="20" cy="6" r="1"></circle>
            </g>
        </g>
    </g>
</svg>