<?xml version="1.0" encoding="UTF-8"?>
<svg width="235px" height="68px" viewBox="0 0 235 68" version="1.1" xmlns="http://www.w3.org/2000/svg" xmlns:xlink="http://www.w3.org/1999/xlink">
    <!-- Generator: Sketch 64 (93537) - https://sketch.com -->
    <title>Group 9</title>
    <desc>Created with Sketch.</desc>
    <defs>
        <polygon id="path-1" points="0 117 283.465 117 283.465 0.78 0 0.78"></polygon>
    </defs>
    <g id="Page-1" stroke="none" stroke-width="1" fill="none" fill-rule="evenodd">
        <g id="Desktop-HD-Copy" transform="translate(-24.000000, -25.000000)">
            <g id="Group-9">
                <polygon id="Fill-1" fill="#FEFEFE" points="24.669 92.551 258.796 92.551 258.796 25.669 24.669 25.669"></polygon>
                <polygon id="Fill-2" fill="#8E9599" points="91.553 86.983 253.228 86.983 253.228 31.238 91.553 31.238"></polygon>
                <g id="Group-8" transform="translate(0.000000, 0.220000)">
                    <path d="M116.7452,75.1798 C124.6502,75.1798 130.4612,70.9948 130.4612,62.4898 L130.4612,43.1098 L122.0022,43.1098 L122.0022,62.3938 C122.0022,65.9728 120.3252,68.0228 116.7452,68.0228 C113.1702,68.0228 111.4892,65.9728 111.4892,62.3938 L111.4892,43.1098 L103.0342,43.1098 L103.0342,62.4898 C103.0342,70.9948 108.8442,75.1798 116.7452,75.1798 L116.7452,75.1798 Z M143.2982,65.6488 L147.6242,65.6488 C155.6682,65.6488 160.1262,60.9078 160.1262,54.4508 C160.1262,47.9908 155.6682,43.1098 147.6242,43.1098 L134.8392,43.1098 L134.8392,74.7178 L143.2982,74.7178 L143.2982,65.6488 Z M143.2982,58.5838 L143.2982,50.2648 L147.2052,50.2648 C150.0882,50.2648 151.6212,51.8468 151.6212,54.4508 C151.6212,57.0548 150.0882,58.5838 147.2052,58.5838 L143.2982,58.5838 Z M178.1662,74.7178 L186.9082,74.7178 L171.5652,42.5518 C171.4302,42.2238 171.1502,42.2238 171.0112,42.5518 L155.6232,74.7178 L163.8972,74.7178 L165.4732,70.9058 L176.4972,70.9058 L178.1662,74.7178 Z M170.9172,58.0808 L173.8002,64.7688 L168.0832,64.7688 L170.9172,58.0808 Z M189.2552,74.7178 L212.0852,74.7178 L212.0852,67.6088 L197.7182,67.6088 L197.7182,62.1648 L209.1572,62.1648 L209.1572,55.4228 L197.7182,55.4228 L197.7182,50.2158 L211.4302,50.2158 L211.4302,43.1098 L189.2552,43.1098 L189.2552,74.7178 Z M224.9272,65.6488 L229.2522,65.6488 C237.2932,65.6488 241.7542,60.9078 241.7542,54.4508 C241.7542,47.9908 237.2932,43.1098 229.2522,43.1098 L216.4642,43.1098 L216.4642,74.7178 L224.9272,74.7178 L224.9272,65.6488 Z M224.9272,58.5838 L224.9272,50.2648 L228.8262,50.2648 C231.7122,50.2648 233.2422,51.8468 233.2422,54.4508 C233.2422,57.0548 231.7122,58.5838 228.8262,58.5838 L224.9272,58.5838 Z" id="Fill-3" fill="#FEFEFE"></path>
                    <mask id="mask-2" fill="white">
                        <use xlink:href="#path-1"></use>
                    </mask>
                    <g id="Clip-6"></g>
                    <polygon id="Fill-5" fill="#E10026" mask="url(#mask-2)" points="30.237 86.763 85.984 86.763 85.984 31.018 30.237 31.018"></polygon>
                    <path d="M74.8536,63.3956 L74.8536,39.7256 L70.1966,39.7256 L70.1966,63.3386 C70.1966,71.0026 65.4336,74.8616 58.1096,74.8616 C50.8486,74.8616 46.0256,71.0026 46.0256,63.3386 L46.0256,39.7256 L46.0176,39.7256 L41.3646,44.3676 L41.3646,63.3956 C41.3646,73.7806 48.4626,78.8916 58.1096,78.8916 C67.7626,78.8916 74.8536,73.7806 74.8536,63.3956 L74.8536,63.3956 Z M64.5226,63.2826 C64.5226,67.4876 62.4796,69.8656 58.1096,69.8656 C53.7386,69.8656 51.6966,67.4876 51.6966,63.2826 L51.6966,39.7256 L47.0426,39.7256 L47.0426,63.3386 C47.0426,70.3176 51.4136,73.8336 58.1096,73.8336 C64.8616,73.8336 69.1756,70.3176 69.1756,63.3386 L69.1756,39.7556 L64.5226,44.4096 L64.5226,63.2826 Z" id="Fill-7" fill="#FEFEFE" mask="url(#mask-2)"></path>
                </g>
            </g>
        </g>
    </g>
</svg>