<?xml version="1.0" encoding="UTF-8"?>
<svg width="48px" height="35px" viewBox="0 0 48 35" version="1.1" xmlns="http://www.w3.org/2000/svg" xmlns:xlink="http://www.w3.org/1999/xlink">
    <!-- Generator: Sketch 53.1 (72631) - https://sketchapp.com -->
    <title>logo gravy</title>
    <desc>Created with Sketch.</desc>
    <g id="Page-1" stroke="none" stroke-width="1" fill="none" fill-rule="evenodd">
        <g id="Desktop-HD-Copy" transform="translate(-1363.000000, -11624.000000)" fill="#FFFFFF">
            <g id="logo-gravy" transform="translate(1363.000000, 11624.000000)">
                <path d="M18.3212184,8.73194822 C17.8258291,8.74097708 17.327578,8.79297665 16.8273713,8.88786332 C16.3264491,8.98279179 15.8285318,9.11642734 15.3333333,9.28835195 C15.8905389,9.52343681 16.4169318,9.71559277 16.9125118,9.86486163 C17.4077103,10.0139215 17.8772951,10.0798406 18.3212184,10.0613648 C19.1051793,10.0343618 19.6937701,9.94833682 20.0860367,9.8037914 C20.4781126,9.65907877 20.6717179,9.50529549 20.6665665,9.34231613 C20.6612244,9.17967118 20.4626108,9.03512576 20.0707257,8.90834546 C19.6780775,8.78156517 19.0952105,8.72304475 18.3212184,8.73194822 L18.3212184,8.73194822 Z M19.0194469,18.0995744 C19.134565,17.9834672 19.2548059,17.9545257 19.3800246,18.0124088 C19.5058716,18.0706329 19.5785575,18.1734387 19.5999186,18.3208261 L19.5999186,18.3998063 C19.5266045,19.1589612 19.3800246,19.9865721 19.160759,20.8827364 C18.9409134,21.7789007 18.6561144,22.6723853 18.3059756,23.5630926 C17.9554502,24.4538486 17.5372651,25.30777 17.0511786,26.124808 C16.5645606,26.941846 16.0129892,27.6536907 15.3962713,28.2600499 C14.7789251,28.8659219 14.1020867,29.3350768 13.3647895,29.6673685 C12.6276857,29.9992216 11.8300748,30.1231733 10.9725367,30.0387361 C10.4915248,29.9964931 10.0917528,29.8546114 9.77264073,29.6118241 C9.4535287,29.3694753 9.21077545,29.092728 9.04346274,28.7815335 C8.87615003,28.4703389 8.78461615,28.1571954 8.76890944,27.8405439 C8.75320273,27.5247206 8.80829704,27.2659034 8.93351577,27.0657489 C9.00682986,26.9602146 9.07738924,26.9285933 9.14524222,26.9711773 C9.21348184,27.0129817 9.3019227,27.081389 9.41201466,27.1767888 C9.52176832,27.2714091 9.67086124,27.3714864 9.85910013,27.4770207 C10.047194,27.5826037 10.3034792,27.6349323 10.6276174,27.6349323 C11.3802829,27.645554 12.1045798,27.4848651 12.8000246,27.1529145 C13.4954694,26.8210614 14.1465004,26.3750012 14.7529728,25.8163907 C15.3592035,25.2575365 15.9189423,24.6146349 16.4313677,23.8873937 C16.9433581,23.1598601 17.3881721,22.4007052 17.7646499,21.6100264 C17.4090983,22.0425902 17.0166722,22.4380271 16.5879998,22.7960933 C16.1593274,23.154598 15.6944571,23.4602868 15.1918907,23.7134034 C14.6901459,23.9663251 14.1465004,24.1534219 13.560616,24.2745963 C12.9751181,24.3957707 12.3477196,24.4407421 11.6784688,24.4090721 C10.7687845,24.3668779 9.96107292,24.1850432 9.25538251,23.8635193 C8.54930547,23.5418006 7.95327206,23.1201994 7.46684732,22.598521 C6.98080921,22.0766477 6.61457706,21.4704834 6.36892411,20.7798819 C6.12307784,20.0893779 6.00559165,19.3485429 6.0160789,18.5581077 C6.02617952,17.6304683 6.18861107,16.7344501 6.50231032,15.8697609 C6.81600957,15.0054128 7.24192723,14.1962193 7.78073989,13.4421316 C8.31911759,12.6887747 8.94941579,11.9927649 9.67086124,11.3549793 C10.3922584,10.7169988 11.1611622,10.155611 11.9766063,9.67066985 C11.4330092,9.47032039 10.888977,9.28073873 10.3453315,9.10134021 C9.80134776,8.92228275 9.26316337,8.76393262 8.72957018,8.6271181 C8.19641194,8.4899138 7.6760607,8.38457442 7.16885478,8.31066145 C6.66169719,8.23699209 6.17271105,8.20532206 5.70237965,8.21589498 C5.33614749,8.22641917 5.01722878,8.30812784 4.74538187,8.46077737 C4.47358329,8.61381669 4.2486632,8.79560264 4.07105655,9.00671991 C3.8931116,9.21739868 3.75987037,9.43358315 3.67128453,9.65483484 C3.58211874,9.87633013 3.53229222,10.0555338 3.52204661,10.192397 C3.51136605,10.3821735 3.52997246,10.5719501 3.57709259,10.7617754 C3.62401941,10.9515519 3.69457878,11.1254934 3.78838409,11.2838436 C3.88281767,11.4417552 4.00305858,11.576231 4.1495901,11.6868812 C4.29559001,11.7974827 4.47358329,11.8688133 4.68279667,11.9003372 C4.78728254,11.9213856 4.90244897,11.9452599 5.02805433,11.9716678 C5.15332138,11.998027 5.29719485,12.0058715 5.45923977,11.9952986 C5.6209464,11.9851154 5.81213331,11.9477935 6.03178561,11.8846483 C6.25143791,11.821357 6.50231032,11.7056396 6.78459615,11.5367653 C6.86834917,11.484193 6.95447027,11.5027565 7.04363605,11.592066 C7.13241521,11.6817653 7.2002682,11.8135613 7.24758165,11.9875029 C7.29431515,12.1614444 7.31021517,12.3696383 7.29431515,12.612182 C7.27894674,12.8545307 7.21326853,13.097318 7.09829541,13.339277 C6.76366998,14.0566275 6.25665737,14.5755775 5.57716092,14.89715 C4.89698787,15.2188688 4.12847062,15.2900045 3.27112587,15.1105573 C2.42388176,14.9209756 1.77053093,14.6205489 1.31025183,14.2091309 C0.850021052,13.797859 0.518053688,13.3502397 0.314108096,12.8651037 C0.110162503,12.3803574 0.00567663314,11.8924928 0.0006021575,11.4022895 C-0.00461730316,10.9120862 0.0240897305,10.4929699 0.0869165718,10.1450381 C0.170621256,9.70214498 0.353495692,9.23849579 0.635974837,8.7533597 C0.918260667,8.26861339 1.29478676,7.82318665 1.76550479,7.41722562 C2.23583619,7.01141077 2.79770146,6.68189632 3.45143891,6.42892589 C4.10503137,6.17605291 4.85010938,6.05463489 5.68667294,6.06501292 C6.4708969,6.08630492 7.22897524,6.17858651 7.96124624,6.34176023 C8.69293729,6.50556736 9.39862771,6.71356635 10.0786074,6.96648806 C10.7582972,7.21960466 11.4089416,7.50166279 12.031314,7.81241884 C12.6534447,8.12361339 13.2523295,8.43183584 13.8275817,8.73757341 C14.6746325,8.36869068 15.5218766,8.08921487 16.3687341,7.8995845 C17.2155916,7.70966178 18.0314223,7.62030358 18.815453,7.63063288 C19.8298648,7.68340002 20.6167952,7.87322529 21.1761474,8.20020614 C21.7356446,8.52704081 22.0101979,8.93811776 21.9997106,9.43358315 C21.9997106,9.74965002 21.9055187,10.0317082 21.7174248,10.2793678 C21.5289926,10.5274172 21.2728524,10.7353674 20.9487142,10.9042418 C20.624721,11.0731161 20.2455369,11.2048634 19.8118384,11.2994837 C19.3773183,11.3942502 18.9199872,11.4472122 18.4391685,11.4577851 C17.8326962,11.4788822 17.1555195,11.3864545 16.4079284,11.1810378 C15.660144,10.9753775 14.8731653,10.725233 14.047234,10.4298735 C13.3254503,10.8725717 12.6484186,11.3972223 12.0159939,12.003143 C11.3829893,12.6094047 10.8393438,13.2708698 10.3845258,13.9878792 C9.92970783,14.7047912 9.57918238,15.4612176 9.33367442,16.2571584 C9.08787648,17.0530506 8.98082921,17.856982 9.01204932,18.6687579 C9.04346274,19.3856699 9.17665564,19.9759505 9.41201466,20.4395996 C9.64718036,20.9038335 9.93473398,21.2727162 10.2747722,21.5467351 C10.6144237,21.8211437 10.9752431,22.0159874 11.357037,22.1318997 C11.7389759,22.2480069 12.0913861,22.30589 12.4159593,22.30589 C13.1581376,22.3269871 13.8378757,22.2531228 14.4549802,22.0846383 C15.0720848,21.9159589 15.6471437,21.6603087 16.1803019,21.3174928 C16.7138468,20.9751642 17.2078591,20.5424054 17.6626771,20.0209219 C18.1174951,19.4988537 18.5491155,18.8955153 18.9568134,18.209981 L18.9568134,18.194146 L19.0194469,18.0995744 Z" id="Fill-1"></path>
                <path d="M25.7362871,14.4301508 C25.7250436,14.4871516 25.6524082,14.6202851 25.5179332,14.8290247 C25.3834084,15.0378082 25.2245558,15.282486 25.0417235,15.5623998 C24.8584933,15.8426647 24.6673527,16.1392531 24.4685506,16.4527794 C24.2689525,16.7657791 24.0995031,17.053021 23.9598043,17.3143295 C23.8194588,17.5755502 23.7228935,17.7913546 23.669412,17.9622692 C23.6150847,18.1332277 23.6422483,18.2138362 23.7500571,18.2043141 C23.9436355,18.195187 24.1697505,18.0881185 24.4280041,17.8839425 C24.6864568,17.6799419 24.9391385,17.4473752 25.1869943,17.185979 C25.4345517,16.9249338 25.663403,16.6661265 25.8731501,16.4098204 C26.0831461,16.1535143 26.2416007,15.9683385 26.3493598,15.8542491 C26.4248309,15.769077 26.5054761,15.7190971 26.5918426,15.7049676 C26.6779106,15.6905748 26.75572,15.700404 26.8259674,15.7333144 C26.8958665,15.7669269 26.9469601,15.8213387 26.979248,15.8972081 C27.0116354,15.973297 27.0059639,16.0588201 26.9632782,16.1535143 C26.6509459,16.5999546 26.3170718,17.0344156 25.9617554,17.4567218 C25.6069364,17.879335 25.2409236,18.270837 24.8641151,18.6317104 C24.756356,18.7267995 24.6162094,18.8549306 24.444571,19.0161915 C24.2719375,19.1777595 24.0809462,19.3319996 23.8710001,19.4791748 C23.6610042,19.6263501 23.4323021,19.7521994 23.1847945,19.8562401 C22.9369387,19.9608074 22.689431,20.00833 22.4419732,19.9988079 C22.2158582,19.9892858 22.0274539,19.9562438 21.8767603,19.8991991 C21.7260667,19.8421545 21.6045268,19.7710241 21.5135335,19.6856765 C21.4221423,19.6000656 21.3574172,19.5029142 21.3199055,19.3934323 C21.2819958,19.284477 21.2576679,19.1728888 21.2472701,19.0587995 C21.2149324,18.773971 21.2768217,18.4489919 21.4328883,18.0832039 C21.5889549,17.717767 21.7849213,17.3498288 22.0222798,16.9796528 C22.2589419,16.6094767 22.5010267,16.2533424 22.7487334,15.9114693 C22.9963902,15.5695962 23.1953913,15.2752896 23.3462839,15.02833 C23.4751869,14.8100244 23.4917537,14.6391098 23.3945914,14.5156739 C23.2975784,14.3924574 23.1417108,14.3401957 22.9265408,14.3590205 L22.2479968,14.4301508 L22.0222798,14.7149792 C21.9252668,14.8290247 21.8144729,14.959657 21.691142,15.1067884 C21.5672141,15.2539636 21.4434354,15.4057025 21.3199055,15.5623998 C21.1957785,15.7190971 21.0776216,15.871187 20.9646885,16.0183184 C20.8513076,16.1654936 20.7519066,16.2911674 20.6656893,16.3955592 C20.5902182,16.4811262 20.504399,16.5216279 20.4074357,16.5168449 C20.3104226,16.5119303 20.2269914,16.4858653 20.157142,16.4383427 C20.0872926,16.3909956 20.0385871,16.3244289 20.0118712,16.2387302 C19.9851056,16.1535143 20.0034634,16.0681666 20.0683378,15.9825996 C20.1332121,15.8972081 20.2134593,15.7952737 20.3104226,15.6764891 C20.4074357,15.5578362 20.5096227,15.4296612 20.6173818,15.292008 C20.7247429,15.1543549 20.8377258,15.0117432 20.9562807,14.8646118 C21.0748356,14.7174365 21.1929925,14.5776771 21.3115474,14.4445875 C21.1179193,14.3780646 21.0153343,14.2569105 21.0049862,14.0812568 C20.9941904,13.9057347 21.0397119,13.7323628 21.142297,13.5616237 C21.244484,13.3904897 21.3869688,13.2459473 21.5701991,13.1271627 C21.7528324,13.0085098 21.9358139,12.9729227 22.1190441,13.0202698 C22.3449601,13.0868365 22.4874449,13.1817062 22.5469462,13.3049227 C22.6060496,13.4287096 22.6197806,13.5709264 22.5874927,13.7323628 C22.7916678,13.7038405 23.0151958,13.6682972 23.2574299,13.6256893 C23.4995645,13.5827302 23.7392613,13.5379721 23.9759731,13.4901423 C24.1591537,13.452449 24.3659158,13.4332732 24.5974536,13.4332732 C24.8289914,13.4332732 25.0388878,13.4665346 25.2273418,13.5331014 C25.4157461,13.5996242 25.5636039,13.7062978 25.6716118,13.8534291 C25.7787739,14.0007799 25.8005147,14.192845 25.7362871,14.4301508" id="Fill-3"></path>
                <path d="M27.3752837,18.1506591 C27.4464679,18.1506591 27.5507741,18.1105341 27.6883905,18.0301916 C27.8253953,17.9498954 27.9786788,17.8421233 28.146312,17.7067828 C28.3142746,17.5714422 28.4924467,17.4112205 28.6808283,17.2255152 C28.8691628,17.040227 29.0548627,16.8322353 29.2383512,16.6013547 L29.8793379,15.533874 C29.8896885,15.5238659 29.8970751,15.5188155 29.9027209,15.5188155 C29.9072376,15.5188155 29.9149535,15.5089928 29.9253512,15.4886987 L29.8793379,15.533874 L30.0019929,15.338346 C30.0422193,15.2179249 30.0778819,15.0675259 30.1086515,14.8872417 C30.1390448,14.7067258 30.1492072,14.5288973 30.1390448,14.3532001 C30.1290235,14.1781053 30.0907261,14.0275673 30.0246702,13.9022811 C29.9583791,13.7769949 29.8540729,13.7093478 29.7117046,13.6989227 C29.5994002,13.689239 29.4238628,13.7442834 29.1845749,13.8645192 C28.94524,13.9848013 28.6909907,14.1803293 28.4211214,14.4509641 C28.151158,14.7217842 27.8867463,15.0703059 27.6270865,15.4961584 C27.3675678,15.9225669 27.1612137,16.4413183 27.00873,17.0526908 C26.9783368,17.1528641 26.9552831,17.2682812 26.9400395,17.3986177 C26.9247488,17.5290933 26.9247488,17.6519237 26.9400395,17.7670165 C26.9552831,17.8822483 26.9957447,17.9774176 27.0619888,18.0528951 C27.1282329,18.1280019 27.2325861,18.1605281 27.3752837,18.1506591 M28.528738,19.1590241 C28.528738,19.1018998 28.5311845,19.0445991 28.5365011,18.9872985 C28.5413942,18.9299978 28.5489221,18.8681131 28.5591317,18.8012918 C28.3964359,18.9636289 28.2359984,19.118517 28.0785721,19.2663086 C27.9202048,19.4141443 27.7546861,19.5430708 27.582157,19.652515 C27.408734,19.7624882 27.2281124,19.8480866 27.039916,19.9101476 C26.8513432,19.9723849 26.6505376,20.0031509 26.4365112,20.0031509 C25.9985781,19.9937625 25.655449,19.8434584 25.4057594,19.5524593 C25.1563991,19.2617245 25.0216975,18.8299421 25.0012782,18.2577289 C24.9910685,17.8954125 25.0420227,17.5138342 25.1541407,17.1133467 C25.2658824,16.7126388 25.4263198,16.317088 25.6350767,15.9261212 C25.8436454,15.5349781 26.0954052,15.1604522 26.3907795,14.8029402 C26.6860126,14.4452078 27.0117806,14.1352554 27.3681776,13.8729947 C27.7242923,13.6107781 28.1034611,13.4056417 28.5058721,13.257806 C28.9079067,13.1100144 29.3174692,13.0456614 29.7353594,13.0647469 C29.836562,13.0647469 29.9539966,13.0813641 30.0862517,13.1149952 C30.2186008,13.1482296 30.3484093,13.2079545 30.4756301,13.2935528 C30.6028979,13.3795038 30.7149689,13.4986892 30.8116077,13.6512852 C30.9082466,13.8038813 30.9667757,14.0043895 30.9873362,14.2519724 L31.4454533,13.5223588 C31.5063819,13.4367604 31.6334145,13.3865562 31.8270686,13.3722751 C32.0202993,13.3579059 32.2188936,13.3701153 32.4227104,13.4081541 C32.6261977,13.4463252 32.7992914,13.5059179 32.9419443,13.5867118 C33.0845031,13.6680787 33.1352691,13.7563217 33.0945246,13.8516171 C33.0742934,13.9184826 32.9776546,14.075839 32.8044198,14.3237745 C32.6311379,14.571666 32.4327318,14.8600646 32.2088722,15.1891026 C31.9850125,15.5181846 31.7556951,15.8640602 31.5218611,16.2263766 C31.2874154,16.5888694 31.0943729,16.9227118 30.9412751,17.2279039 C30.7889771,17.533096 30.6994897,17.7834999 30.6739891,17.9786747 C30.6487237,18.1742904 30.7327064,18.2672497 30.9264076,18.2577289 C31.0482648,18.2577289 31.1858834,18.2078774 31.3381814,18.1073808 C31.4914674,18.0073691 31.6464001,17.8835557 31.8040616,17.7355877 C31.9618173,17.5878843 32.1222547,17.4231229 32.285327,17.2420528 C32.4480228,17.0609827 32.5982976,16.8844967 32.7357281,16.7126388 C32.8730644,16.5410895 32.9976504,16.3816173 33.1100037,16.233429 C33.2215101,16.0858137 33.3083157,15.9736808 33.3694795,15.8971183 C33.4404767,15.8115199 33.519378,15.7613157 33.6062307,15.7471669 C33.6926128,15.7326654 33.7690206,15.7425828 33.8353128,15.7756409 C33.9013697,15.8094042 33.9496891,15.8640602 33.9805063,15.9402701 C34.0110412,16.0166562 34.0055835,16.1026072 33.9649801,16.1977263 C33.669794,16.646126 33.3542356,17.0825366 33.0183991,17.5067377 C32.6824685,17.9312915 32.3360929,18.3245503 31.9799312,18.6870431 C31.8780228,18.7825588 31.7457207,18.9112649 31.5828367,19.0732054 C31.4201409,19.2355426 31.239143,19.3904747 31.0405487,19.5382663 C30.8421897,19.6861461 30.6259049,19.8125602 30.3918356,19.9170677 C30.1576252,20.0221042 29.9233676,20.0698401 29.6893454,20.0602753 C29.2514593,20.0411457 28.9509567,19.9436023 28.7882609,19.7671163 C28.6253769,19.5906303 28.5387124,19.3879623 28.528738,19.1590241" id="Fill-5"></path>
                <path d="M40.1517412,17.0630483 C39.9461139,17.3001565 39.7248978,17.5325591 39.4876543,17.7596622 C39.2508006,17.9872679 39.0135571,18.1872337 38.7763137,18.3602907 C38.5390702,18.5334848 38.3205334,18.634587 38.1204597,18.6641456 C37.7616229,18.7139886 37.44814,18.6370084 37.1792316,18.4343471 C36.9107129,18.2319599 36.7340713,17.8982266 36.6499887,17.4336041 C36.4600477,17.6410624 36.2704478,17.8390181 36.0805556,18.0266945 C35.8909557,18.2143709 35.7062761,18.3974788 35.5270525,18.5754242 C35.4215352,18.6744249 35.2843529,18.8077811 35.1158955,18.9756757 C34.9471944,19.1439357 34.7605661,19.3045206 34.5549876,19.4577044 C34.3494091,19.6109796 34.1250264,19.7420058 33.8827166,19.8503264 C33.6402119,19.9591951 33.3976584,20.0086726 33.1555435,19.9987589 C32.9341325,19.9888451 32.7496477,19.9496469 32.6020403,19.8803418 C32.4545304,19.8112652 32.3386367,19.7269753 32.254408,19.6279746 C32.1697408,19.5293394 32.1066545,19.4181407 32.0644184,19.2944241 C32.0226207,19.171073 32.0010885,19.049732 32.0010885,18.9313607 C31.9909557,18.5851095 32.0515575,18.2294015 32.1832837,17.8635513 C32.3150098,17.4979751 32.4703142,17.1719171 32.6493429,16.8849202 L34.9896254,13.2223061 C35.0527604,13.1335847 35.1842917,13.0815488 35.3848039,13.066701 C35.5847314,13.0518531 35.7881665,13.0645081 35.993745,13.103889 C36.1993235,13.1434985 36.3783522,13.2052654 36.5312208,13.2890071 C36.6836509,13.3733427 36.7393325,13.4648052 36.6969015,13.5635775 C36.6757591,13.6328368 36.576185,13.7959344 36.3967179,14.0529159 C36.2172995,14.3098517 36.0119645,14.6065796 35.7801772,14.9423687 C35.5481949,15.2786604 35.3109028,15.6345968 35.0687878,16.0099497 C34.8260882,16.385805 34.6257222,16.7318277 34.4676411,17.0480177 C34.3097548,17.3647103 34.2173419,17.623839 34.1909382,17.8265916 C34.1647294,18.0292529 34.2512965,18.1304008 34.4521983,18.1304008 C34.620461,18.1304008 34.802169,18.0762177 34.9974199,17.9673033 C35.1924759,17.8588457 35.3871422,17.7176772 35.5825392,17.5448943 C35.7774004,17.3720657 35.9699232,17.1839781 36.1596693,16.9813168 C36.3494153,16.7789296 36.5176779,16.583578 36.6654801,16.3955361 C36.6654801,16.3464241 36.6757591,16.2720479 36.6969015,16.17323 C36.7078624,16.1140671 36.7418657,15.9707057 36.7996908,15.7432829 C36.8575645,15.5158143 36.9396011,15.2639953 37.0447774,14.9870949 C37.1503434,14.7101488 37.2792928,14.4286342 37.4325511,14.1416373 C37.5849812,13.8549602 37.7616229,13.6225576 37.962135,13.4447949 C38.1727799,13.2472504 38.3674462,13.1237166 38.5468646,13.0741934 C38.7262343,13.0247159 38.8841206,13 39.0213516,13 C39.2848039,13 39.4876543,13.0793559 39.6303414,13.2371539 C39.7725901,13.3955002 39.8276871,13.6079382 39.7960221,13.8749705 C39.8062036,13.9242653 39.7933428,13.9810524 39.7566114,14.045195 C39.7194417,14.1097031 39.6721391,14.1788254 39.6143141,14.2528817 C39.5564403,14.3270751 39.4958385,14.3989386 39.4325086,14.4680609 C39.3692275,14.5373202 39.3219249,14.5964831 39.29026,14.6460063 C39.2164076,14.7449613 39.1241408,14.8831602 39.0135571,15.0611056 C38.9029247,15.2390966 38.7868362,15.4318898 38.6656812,15.6393481 C38.5441366,15.8468064 38.4260507,16.064544 38.3096212,16.2917841 C38.1935326,16.5194354 38.1040427,16.7268937 38.0411025,16.9145701 C37.9777726,17.102612 37.9488357,17.2605928 37.9539508,17.3888779 C37.9589685,17.517757 38.0148937,17.5965647 38.1204597,17.626443 C38.2150161,17.656093 38.3440142,17.6165293 38.5073565,17.5076605 C38.6707963,17.3990202 38.8447099,17.2629685 39.0291947,17.0998709 C39.2136795,16.9365449 39.3981643,16.7615234 39.5826004,16.5735272 C39.7670852,16.385805 39.9222922,16.2175907 40.0489519,16.0693409 C40.1126228,15.9904876 40.1677685,15.9186699 40.2154608,15.8545273 C40.2623736,15.790202 40.3072404,15.7335518 40.3495252,15.6837088 C40.4229392,15.5949874 40.5046834,15.5455099 40.5945632,15.5355961 C40.6841019,15.5259108 40.7630206,15.5382002 40.8318066,15.5726472 C40.9002029,15.6074596 40.9502822,15.6642925 40.9823369,15.7432829 C41.0139531,15.8222732 41.0030409,15.9063804 40.9502822,15.9952846 L40.6500499,16.4549274 C40.5234388,16.6231874 40.3573197,16.8255289 40.1517412,17.0630483" id="Fill-7"></path>
                <path d="M36.3684211,24.6629747 C36.3684211,24.7526437 36.4187472,24.7819793 36.5189088,24.7506492 C36.619125,24.7190282 36.7460036,24.6563264 36.8990541,24.5619621 C37.0526498,24.4674315 37.2210761,24.354909 37.4034608,24.224727 C37.5868269,24.0942125 37.7517091,23.9705541 37.8991435,23.8538348 C38.0465234,23.7368247 38.1672953,23.6424604 38.2622226,23.5704509 C38.356332,23.4986493 38.397389,23.4718068 38.3856117,23.4897987 C38.4097115,23.4897987 38.4210526,23.4806158 38.4210526,23.46279 C37.8545425,23.7235281 37.3741811,23.9618697 36.9787145,24.1775656 C36.583684,24.393303 36.380471,24.555106 36.3684211,24.6629747 L36.3684211,24.6629747 Z M41.2343707,13.2341071 C41.2982538,13.1400697 41.4320569,13.0849159 41.6357306,13.0691784 C41.8390085,13.0534409 42.0451069,13.0668541 42.2542732,13.1085947 C42.4631427,13.1505775 42.6445984,13.2160454 42.8002237,13.3048047 C42.9550573,13.3941451 43.011023,13.491088 42.9685663,13.5957785 C42.9470905,13.6692362 42.845501,13.8421063 42.6636495,14.1144857 C42.4814021,14.3868166 42.272978,14.701324 42.0375854,15.0571847 C41.8013021,15.4136264 41.5607138,15.79089 41.3141379,16.1887333 C41.0680074,16.5871578 40.8646801,16.9539136 40.7043044,17.2890007 C40.5439287,17.624669 40.4498607,17.8993727 40.4231891,18.1142255 C40.3966165,18.3290784 40.4844001,18.4362869 40.6880738,18.4362869 C40.8913022,18.4362869 41.121598,18.3473338 41.3788622,18.1691856 C41.6357306,17.9910374 41.8846816,17.7789447 42.12527,17.5326169 C42.3662542,17.2864827 42.5914037,17.0298893 42.8002237,16.7624006 C43.0090437,16.4952509 43.1773862,16.2730378 43.3055978,16.0946959 L45.0727493,13.2341071 C45.1259934,13.1400697 45.254205,13.0849159 45.4582745,13.0691784 C45.6611565,13.0534409 45.870026,13.0668541 46.084784,13.1085947 C46.2984039,13.1505775 46.4806513,13.2160454 46.630685,13.3048047 C46.7803723,13.3941451 46.8339628,13.491088 46.7910607,13.5957785 C46.5556186,14.0150249 46.2908329,14.4732517 45.9958623,14.9707496 C45.7012876,15.4688286 45.3859793,15.9871 45.048156,16.5267259 C44.711075,17.0664002 44.3549429,17.624669 43.9805515,18.2004669 C43.6053683,18.7770395 43.2198925,19.3479467 42.8240252,19.9138179 C43.4024863,19.610012 43.9483872,19.2747311 44.4621735,18.9079269 C44.9758608,18.5412195 45.4364523,18.1429403 45.8437503,17.7134768 C46.0041755,17.5562957 46.1590586,17.3859436 46.3090923,17.2027594 C46.4591755,17.0193815 46.6005001,16.8410396 46.7346991,16.6681695 C46.8685022,16.4952509 46.9891923,16.3356003 47.0964228,16.1887333 C47.203208,16.0422538 47.2889628,15.9270554 47.3532417,15.8429447 C47.428308,15.7489556 47.5081248,15.6938018 47.5938795,15.6782096 C47.6800301,15.6623269 47.7570263,15.6731736 47.8272928,15.7094909 C47.8964211,15.7465829 47.9471911,15.8066274 47.9794048,15.8903508 C48.0115195,15.9743163 48.0059774,16.0686927 47.9634711,16.1731895 C47.7169448,16.5714203 47.4548806,16.9641793 47.1761901,17.3519506 C46.8978459,17.7394799 46.603667,18.1064294 46.2932081,18.4518307 C46.0573702,18.7140896 45.7735333,18.9864206 45.4419945,19.2692593 C45.1096639,19.5521465 44.7567482,19.821911 44.381565,20.0785529 C44.0071241,20.3357275 43.6216483,20.5762445 43.2258305,20.8017504 C42.8295674,21.0269174 42.45478,21.2126196 42.1014685,21.3594866 L41.5877317,21.5795691 C41.0842875,22.2396714 40.5780722,22.855273 40.0698776,23.4264223 C39.5609407,23.9971358 39.0551213,24.5079984 38.552073,24.9586713 C38.3913014,25.0946915 38.2043036,25.2387984 37.9898919,25.3910887 C37.7758762,25.5426527 37.5460258,25.6762517 37.2994994,25.7916438 C37.0533194,25.9066484 36.8043684,25.9882411 36.5526463,26.0352599 C36.3009242,26.0822302 36.0575648,26.0690591 35.8217269,25.9960372 C35.5755964,25.9117328 35.3830069,25.7993914 35.2437111,25.6579963 C35.1047123,25.5166011 35.0241038,25.3145804 35.0026775,25.0527088 C34.9812511,24.6758326 35.0884322,24.3143064 35.3238743,23.9685662 C35.5597122,23.6225839 35.8538911,23.3059459 36.2072521,23.0176838 C36.5606131,22.7293732 36.9381716,22.4780579 37.3395315,22.2631566 C37.7409409,22.0483522 38.1022193,21.878339 38.4234161,21.7526329 C38.7021067,21.6477487 38.9641708,21.5506121 39.2107466,21.4616591 C39.4564812,21.3726576 39.6978613,21.2809929 39.9333034,21.1866164 C40.1155508,20.945712 40.2890891,20.7020959 40.455007,20.4558165 C40.6209743,20.2098761 40.784517,19.9608366 40.9448927,19.7094728 C40.7198422,19.9083461 40.4716829,20.0785529 40.1981386,20.2203839 C39.9249902,20.3613917 39.6494665,20.4270533 39.3711224,20.4165455 C39.1464182,20.4060861 38.9590245,20.3644907 38.8088919,20.2910815 C38.659254,20.2178659 38.5413351,20.128477 38.4556298,20.0235444 C38.3702214,19.9190476 38.305893,19.8011376 38.2630404,19.6700081 C38.2201877,19.539266 38.1987119,19.4107029 38.1987119,19.2851905 C38.1883699,18.918241 38.2495314,18.5412195 38.3833345,18.1534481 C38.5175335,17.7659189 38.6751382,17.4203239 38.8573856,17.1161306 L41.2343707,13.2341071 Z" id="Fill-9"></path>
                <path d="M41.7219876,11.9736653 C41.8205613,11.9736653 41.9126082,11.9834734 42,12 C39.6011652,5.01987773 33.0903576,0 25.4500317,0 C20.0533373,0 15.2198184,2.50523098 12,6.43557721 C12.0552857,6.51644489 12.1001574,6.60398208 12.1371106,6.69529539 C15.3070182,2.77691503 20.098017,0.275852486 25.4500317,0.275852486 C32.9301634,0.275852486 39.3123548,5.16229117 41.7065825,11.9744499 C41.7119575,11.9742538 41.7166126,11.9736653 41.7219876,11.9736653" id="Fill-11"></path>
                <path d="M41.5917422,23.3266457 C39.0871327,29.9811635 32.7112114,34.7241244 25.256427,34.7241244 C20.5859339,34.7241244 16.3406446,32.8593643 13.2029636,29.8328264 C13.1433855,29.9016482 13.0752131,29.9638968 13,30.0185421 C16.1883248,33.1006083 20.5054768,35 25.256427,35 C32.9855036,35 39.5721574,29.9804277 42,23 C41.8659858,23.1110076 41.7300293,23.2203964 41.5917422,23.3266457" id="Fill-13"></path>
            </g>
        </g>
    </g>
</svg>