<?xml version="1.0" encoding="UTF-8"?>
<svg width="152px" height="38px" viewBox="0 0 152 38" version="1.1" xmlns="http://www.w3.org/2000/svg" xmlns:xlink="http://www.w3.org/1999/xlink">
    <!-- Generator: Sketch 53.1 (72631) - https://sketchapp.com -->
    <title>Fill 2</title>
    <desc>Created with Sketch.</desc>
    <g id="Page-1" stroke="none" stroke-width="1" fill="none" fill-rule="evenodd">
        <g id="Desktop-HD-Copy" transform="translate(-542.000000, -46.000000)" fill="#FEFEFE">
            <g id="Fill-2" transform="translate(542.000000, 46.000000)">
                <path d="M7,22.3181586 C7,29.4766124 11.8755412,33 18.5003434,33 C25.1299531,33 30,29.4766124 30,22.3181586 L30,6 L26.8022933,6 L26.8022933,22.2781749 C26.8022933,27.5622223 23.5310998,30.2225144 18.5003434,30.2225144 C13.5135418,30.2225144 10.2011407,27.5622223 10.2011407,22.2781749 L10.2011407,6 L10.1956463,6 L7,9.20076086 L7,22.3181586 Z M11,21.9224545 C11,26.6284558 13.9623187,29 18.5003389,29 C23.0763114,29 26,26.6284558 26,21.9224545 L26,6.02022927 L22.846564,9.15846258 L22.846564,21.8853675 C22.846564,24.7201618 21.4626576,26.3243425 18.5003389,26.3243425 C15.5380202,26.3243425 14.1541138,24.7201618 14.1541138,21.8853675 L14.1541138,6 L11,6 L11,21.9224545 Z M0,38 L38,38 L38,0 L0,0 L0,38 Z M144,15.8943305 C144,11.3980005 141.000751,8 135.596457,8 L127,8 L127,30 L132.688624,30 L132.688624,23.6884333 L135.596457,23.6884333 C141.000751,23.6884333 144,20.3885725 144,15.8943305 L144,15.8943305 Z M124,25.0519489 L113.931143,25.0519489 L113.931143,21.2641736 L121.947963,21.2641736 L121.947963,16.5701721 L113.931143,16.5701721 L113.931143,12.945963 L123.540254,12.945963 L123.540254,8 L108,8 L108,30 L124,30 L124,25.0519489 Z M107,29 L96.7007096,7.16646998 C96.609417,6.94451001 96.422804,6.94451001 96.3288262,7.16646998 L86,29 L91.5534139,29 L92.6106636,26.4125034 L100.012083,26.4125034 L101.132432,29 L107,29 Z M79.5947955,23.6884333 C85.0035197,23.6884333 88,20.3885725 88,15.8943305 C88,11.3980005 85.0035197,8 79.5947955,8 L71,8 L71,30 L76.68706,30 L76.68706,23.6884333 L79.5947955,23.6884333 Z M68,8 L62.1398308,8 L62.1398308,21.228812 C62.1398308,23.6840037 60.9787428,25.0903025 58.4986145,25.0903025 C56.0212572,25.0903025 54.8573981,23.6840037 54.8573981,21.228812 L54.8573981,8 L49,8 L49,21.2946679 C49,27.1304646 53.0250128,30 58.4986145,30 C63.9749872,30 68,27.1304646 68,21.2946679 L68,8 Z M42,38 L152,38 L152,0 L42,0 L42,38 Z M94,23 L98,23 L95.983205,18 L94,23 Z M79.8165325,13 L77,13 L77,19 L79.8165325,19 C81.8948696,19 83,17.8966346 83,16.0194712 C83,14.1408654 81.8948696,13 79.8165325,13 L79.8165325,13 Z M139,16.0194712 C139,17.8966346 137.896104,19 135.813853,19 L133,19 L133,13 L135.813853,13 C137.896104,13 139,14.1408654 139,16.0194712 L139,16.0194712 Z" id="Fill-1"></path>
            </g>
        </g>
    </g>
</svg>