<?xml version="1.0" encoding="UTF-8"?>
<svg width="37px" height="28px" viewBox="0 0 37 28" version="1.1" xmlns="http://www.w3.org/2000/svg" xmlns:xlink="http://www.w3.org/1999/xlink">
    <!-- Generator: Sketch 64 (93537) - https://sketch.com -->
    <title>united-states copy 10</title>
    <desc>Created with Sketch.</desc>
    <g id="Page-1" stroke="none" stroke-width="1" fill="none" fill-rule="evenodd">
        <g id="Desktop-HD-Copy" transform="translate(-158.000000, -5350.000000)" fill-rule="nonzero">
            <g id="united-states-copy-10" transform="translate(158.000000, 5350.000000)">
                <path d="M35.8179404,0 L19.2689622,0 L1,14.7447773 L1,27 L35.8179404,27 L37,26.1914039 L37,23.6313224 L36.2306163,22.7781566 L36.2306163,20.3577099 L37,19.6927547 L37,15.7541871 L36.3081272,14.9812299 L36.3081272,12.5051129 L37,11.815536 L37,7.87705182 L36.3081272,7.16352081 L36.3081272,4.9934651 L37,3.93856764 L37,1.37848615 C37,0.617130457 36.4707356,0 35.8179404,0 L35.8179404,0 Z" id="Path" fill="#E5646E"></path>
                <polygon id="Path" fill="#F2F2F6" points="19 4 37 4 37 8 19 8"></polygon>
                <polygon id="Path" fill="#F2F2F6" points="18 12 18.6128984 16 37 16 37 12"></polygon>
                <path d="M1.19353906,22.2805922 L1.19353906,15 L0,15.7440148 L0,19.8293432 L0.505859375,20.3459287 L0.505859375,23.0297148 L0,23.9146716 L0,26.570148 C0,27.3598737 0.534404297,28 1.19353906,28 L35.8064609,28 C36.4655957,28 37,27.3597872 37,26.570148 L4.77422852,26.570148 C2.79667969,26.570148 1.19353906,24.6496827 1.19353906,22.2805922 Z" id="Path" fill="#DB4655"></path>
                <polygon id="Path" fill="#5055A0" points="20 0 1.77366045 0 1 1.3999947 1.77366045 16 20 16"></polygon>
                <path d="M1,0 C0.447747639,0 0,0.626759556 0,1.3999947 L0,16 L1,16 L1,0 Z" id="Path" fill="#3F3F8F"></path>
                <path d="M2.50117775,3 C2.22546355,3 2,2.77609591 2,2.5 C2,2.22390409 2.22063176,2 2.49634596,2 L2.50123815,2 C2.77695235,2 3,2.22390409 3,2.5 C3,2.77609591 2.77683155,3 2.50117775,3 Z" id="Path" fill="#FFFFFF"></path>
                <path d="M2.50117775,9 C2.22546355,9 2,8.77609591 2,8.5 C2,8.22390409 2.22063176,8 2.49634596,8 L2.50123815,8 C2.77695235,8 3,8.22390409 3,8.5 C3,8.77609591 2.77683155,9 2.50117775,9 Z" id="Path" fill="#FFFFFF"></path>
                <path d="M2.50117775,14 C2.22546355,14 2,13.7760959 2,13.5 C2,13.2239041 2.22063176,13 2.49634596,13 L2.50123815,13 C2.77695235,13 3,13.2239041 3,13.5 C3,13.7760959 2.77683155,14 2.50117775,14 Z" id="Path" fill="#FFFFFF"></path>
                <path d="M2.50117775,6 C2.22546355,6 2,5.77609591 2,5.5 C2,5.22390409 2.22063176,5 2.49634596,5 L2.50123815,5 C2.77695235,5 3,5.22390409 3,5.5 C2.9999396,5.77609591 2.77683155,6 2.50117775,6 Z" id="Path" fill="#F2F2F6"></path>
                <path d="M2.50117775,12 C2.22546355,12 2,11.7760959 2,11.5 C2,11.2239041 2.22063176,11 2.49634596,11 L2.50123815,11 C2.77695235,11 3,11.2239041 3,11.5 C3,11.7760959 2.77683155,12 2.50117775,12 Z" id="Path" fill="#F2F2F6"></path>
                <path d="M16.5011777,3 C16.2254636,3 16,2.77609591 16,2.5 C16,2.22390409 16.2206318,2 16.496346,2 L16.5012381,2 C16.7769523,2 17,2.22390409 17,2.5 C17,2.77609591 16.7768919,3 16.5011777,3 L16.5011777,3 Z" id="Path" fill="#FFFFFF"></path>
                <path d="M16.5011777,9 C16.2254636,9 16,8.77609591 16,8.5 C16,8.22390409 16.2206318,8 16.496346,8 L16.5012381,8 C16.7769523,8 17,8.22390409 17,8.5 C17,8.77609591 16.7768919,9 16.5011777,9 L16.5011777,9 Z" id="Path" fill="#FFFFFF"></path>
                <path d="M16.5011777,14 C16.2254636,14 16,13.7760959 16,13.5 C16,13.2239041 16.2206318,13 16.496346,13 L16.5012381,13 C16.7769523,13 17,13.2239041 17,13.5 C17,13.7760959 16.7768919,14 16.5011777,14 L16.5011777,14 Z" id="Path" fill="#FFFFFF"></path>
                <g id="Group" transform="translate(5.000000, 1.000000)" fill="#F2F2F6">
                    <path d="M11.3715181,4.33536913 C11.0415181,4.33536913 10.7716627,4.01272483 10.7716627,3.61487248 C10.7716627,3.21702013 11.0357349,2.89437584 11.3657349,2.89437584 L11.3715904,2.89437584 C11.7015904,2.89437584 11.9685542,3.21702013 11.9685542,3.61487248 C11.9685542,4.01272483 11.7015181,4.33536913 11.3715181,4.33536913 L11.3715181,4.33536913 Z" id="Path"></path>
                    <path d="M11.3715181,10.0993423 C11.0415181,10.0993423 10.7716627,9.77669799 10.7716627,9.37884564 C10.7716627,8.98099329 11.0357349,8.65834899 11.3657349,8.65834899 L11.3715904,8.65834899 C11.7015904,8.65834899 11.9685542,8.98099329 11.9685542,9.37884564 C11.9685542,9.77669799 11.7015181,10.0993423 11.3715181,10.0993423 L11.3715181,10.0993423 Z" id="Path"></path>
                    <path d="M0.626096386,1.4532953 C0.296096386,1.4532953 0.0262409639,1.13065101 0.0262409639,0.732798658 C0.0262409639,0.334946309 0.290313253,0.0123020134 0.620313253,0.0123020134 L0.626168675,0.0123020134 C0.956168675,0.0123020134 1.22313253,0.334946309 1.22313253,0.732798658 C1.22313253,1.13065101 0.956096386,1.4532953 0.626096386,1.4532953 Z" id="Path"></path>
                    <path d="M0.626096386,7.2173557 C0.296096386,7.2173557 0.0262409639,6.89471141 0.0262409639,6.49685906 C0.0262409639,6.09900671 0.290313253,5.77636242 0.620313253,5.77636242 L0.626168675,5.77636242 C0.956168675,5.77636242 1.22313253,6.09900671 1.22313253,6.49685906 C1.22313253,6.89471141 0.956096386,7.2173557 0.626096386,7.2173557 Z" id="Path"></path>
                    <path d="M0.626096386,12.9813289 C0.296096386,12.9813289 0.0262409639,12.6586846 0.0262409639,12.2608322 C0.0262409639,11.8629799 0.290313253,11.5403356 0.620313253,11.5403356 L0.626168675,11.5403356 C0.956168675,11.5403356 1.22313253,11.8629799 1.22313253,12.2608322 C1.22313253,12.6586846 0.956096386,12.9813289 0.626096386,12.9813289 Z" id="Path"></path>
                </g>
                <path d="M6.50117775,6 C6.22546355,6 6,5.77609591 6,5.5 C6,5.22390409 6.22063176,5 6.49634596,5 L6.50123815,5 C6.77695235,5 7,5.22390409 7,5.5 C6.9999396,5.77609591 6.77689195,6 6.50117775,6 Z" id="Path" fill="#FFFFFF"></path>
                <path d="M6.50117775,12 C6.22546355,12 6,11.7760959 6,11.5 C6,11.2239041 6.22063176,11 6.49634596,11 L6.50123815,11 C6.77695235,11 7,11.2239041 7,11.5 C7,11.7760959 6.77689195,12 6.50117775,12 Z" id="Path" fill="#FFFFFF"></path>
                <path d="M4.50117775,4 C4.22546355,4 4,3.77609591 4,3.5 C4,3.22390409 4.22063176,3 4.49634596,3 L4.50123815,3 C4.77695235,3 5,3.22390409 5,3.5 C4.9999396,3.77615645 4.77689195,4 4.50117775,4 Z" id="Path" fill="#FFFFFF"></path>
                <path d="M4.50117775,10 C4.22546355,10 4,9.77609591 4,9.5 C4,9.22390409 4.22063176,9 4.49634596,9 L4.50123815,9 C4.77695235,9 5,9.22390409 5,9.5 C5,9.77609591 4.77689195,10 4.50117775,10 Z" id="Path" fill="#FFFFFF"></path>
                <path d="M4.50117775,7 C4.22546355,7 4,6.77609591 4,6.5 C4,6.22390409 4.22063176,6 4.49634596,6 L4.50123815,6 C4.77695235,6 5,6.22390409 5,6.5 C5,6.77609591 4.77689195,7 4.50117775,7 Z" id="Path" fill="#F2F2F6"></path>
                <path d="M4.50117775,13 C4.22546355,13 4,12.7760959 4,12.5 C4,12.2239041 4.22063176,12 4.49634596,12 L4.50123815,12 C4.77695235,12 5,12.2239041 5,12.5 C5,12.7760959 4.77689195,13 4.50117775,13 Z" id="Path" fill="#F2F2F6"></path>
                <path d="M9.50117775,3 C9.22546355,3 9,2.77609591 9,2.5 C9,2.22390409 9.22063176,2 9.49634596,2 L9.50123815,2 C9.77695235,2 10,2.22390409 10,2.5 C10,2.77609591 9.77683155,3 9.50117775,3 L9.50117775,3 Z" id="Path" fill="#FFFFFF"></path>
                <path d="M9.50117775,9 C9.22546355,9 9,8.77609591 9,8.5 C9,8.22390409 9.22063176,8 9.49634596,8 L9.50123815,8 C9.77695235,8 10,8.22390409 10,8.5 C10,8.77609591 9.77683155,9 9.50117775,9 L9.50117775,9 Z" id="Path" fill="#FFFFFF"></path>
                <path d="M9.50117775,14 C9.22546355,14 9,13.7760959 9,13.5 C9,13.2239041 9.22063176,13 9.49634596,13 L9.50123815,13 C9.77695235,13 10,13.2239041 10,13.5 C10,13.7760959 9.77683155,14 9.50117775,14 L9.50117775,14 Z" id="Path" fill="#FFFFFF"></path>
                <path d="M9.50117775,6 C9.22546355,6 9,5.77609591 9,5.5 C9,5.22390409 9.22063176,5 9.49634596,5 L9.50123815,5 C9.77695235,5 10,5.22390409 10,5.5 C9.9999396,5.77609591 9.77683155,6 9.50117775,6 L9.50117775,6 Z" id="Path" fill="#F2F2F6"></path>
                <path d="M9.50117775,12 C9.22546355,12 9,11.7760959 9,11.5 C9,11.2239041 9.22063176,11 9.49634596,11 L9.50123815,11 C9.77695235,11 10,11.2239041 10,11.5 C10,11.7760959 9.77683155,12 9.50117775,12 L9.50117775,12 Z" id="Path" fill="#F2F2F6"></path>
                <path d="M7.50117775,4 C7.22546355,4 7,3.77609591 7,3.5 C7,3.22390409 7.22063176,3 7.49634596,3 L7.50123815,3 C7.77695235,3 8,3.22390409 8,3.5 C8,3.77615645 7.77689195,4 7.50117775,4 Z" id="Path" fill="#F2F2F6"></path>
                <path d="M7.50117775,10 C7.22546355,10 7,9.77609591 7,9.5 C7,9.22390409 7.22063176,9 7.49634596,9 L7.50123815,9 C7.77695235,9 8,9.22390409 8,9.5 C8,9.77609591 7.77689195,10 7.50117775,10 Z" id="Path" fill="#F2F2F6"></path>
                <path d="M7.50117775,7 C7.22546355,7 7,6.77609591 7,6.5 C7,6.22390409 7.22063176,6 7.49634596,6 L7.50123815,6 C7.77695235,6 8,6.22390409 8,6.5 C8,6.77609591 7.77689195,7 7.50117775,7 Z" id="Path" fill="#FFFFFF"></path>
                <path d="M7.50117775,13 C7.22546355,13 7,12.7760959 7,12.5 C7,12.2239041 7.22063176,12 7.49634596,12 L7.50123815,12 C7.77695235,12 8,12.2239041 8,12.5 C8,12.7760959 7.77689195,13 7.50117775,13 Z" id="Path" fill="#FFFFFF"></path>
                <path d="M13.5011777,3 C13.2254636,3 13,2.77609591 13,2.5 C13,2.22390409 13.2206318,2 13.496346,2 L13.5012381,2 C13.7769523,2 14,2.22390409 14,2.5 C14,2.77609591 13.7768919,3 13.5011777,3 L13.5011777,3 Z" id="Path" fill="#F2F2F6"></path>
                <path d="M13.5011777,9 C13.2254636,9 13,8.77609591 13,8.5 C13,8.22390409 13.2206318,8 13.496346,8 L13.5012381,8 C13.7769523,8 14,8.22390409 14,8.5 C14,8.77609591 13.7768919,9 13.5011777,9 L13.5011777,9 Z" id="Path" fill="#F2F2F6"></path>
                <path d="M13.5011777,14 C13.2254636,14 13,13.7760959 13,13.5 C13,13.2239041 13.2206318,13 13.496346,13 L13.5012381,13 C13.7769523,13 14,13.2239041 14,13.5 C14,13.7760959 13.7768919,14 13.5011777,14 L13.5011777,14 Z" id="Path" fill="#F2F2F6"></path>
                <path d="M13.5011777,6 C13.2254636,6 13,5.77609591 13,5.5 C13,5.22390409 13.2206318,5 13.496346,5 L13.5012381,5 C13.7769523,5 14,5.22390409 14,5.5 C13.9999396,5.77609591 13.7768919,6 13.5011777,6 L13.5011777,6 Z" id="Path" fill="#FFFFFF"></path>
                <path d="M13.5011777,12 C13.2254636,12 13,11.7760959 13,11.5 C13,11.2239041 13.2206318,11 13.496346,11 L13.5012381,11 C13.7769523,11 14,11.2239041 14,11.5 C14,11.7760959 13.7768919,12 13.5011777,12 L13.5011777,12 Z" id="Path" fill="#FFFFFF"></path>
                <path d="M11.5011777,4 C11.2254636,4 11,3.77609591 11,3.5 C11,3.22390409 11.2206318,3 11.496346,3 L11.5012381,3 C11.7769523,3 12,3.22390409 12,3.5 C11.9999396,3.77615645 11.7768919,4 11.5011777,4 L11.5011777,4 Z" id="Path" fill="#FFFFFF"></path>
                <path d="M11.5011777,10 C11.2254636,10 11,9.77609591 11,9.5 C11,9.22390409 11.2206318,9 11.496346,9 L11.5012381,9 C11.7769523,9 12,9.22390409 12,9.5 C12,9.77609591 11.7768919,10 11.5011777,10 L11.5011777,10 Z" id="Path" fill="#FFFFFF"></path>
                <path d="M11.5011777,7 C11.2254636,7 11,6.77609591 11,6.5 C11,6.22390409 11.2206318,6 11.496346,6 L11.5012381,6 C11.7769523,6 12,6.22390409 12,6.5 C12,6.77609591 11.7768919,7 11.5011777,7 L11.5011777,7 Z" id="Path" fill="#F2F2F6"></path>
                <path d="M11.5011777,13 C11.2254636,13 11,12.7760959 11,12.5 C11,12.2239041 11.2206318,12 11.496346,12 L11.5012381,12 C11.7769523,12 12,12.2239041 12,12.5 C12,12.7760959 11.7768919,13 11.5011777,13 L11.5011777,13 Z" id="Path" fill="#F2F2F6"></path>
                <path d="M15.5011777,4 C15.2254636,4 15,3.77609591 15,3.5 C15,3.22390409 15.2206318,3 15.496346,3 L15.5012381,3 C15.7769523,3 16,3.22390409 16,3.5 C15.9999396,3.77615645 15.7768919,4 15.5011777,4 L15.5011777,4 Z" id="Path" fill="#F2F2F6"></path>
                <path d="M15.5011777,10 C15.2254636,10 15,9.77609591 15,9.5 C15,9.22390409 15.2206318,9 15.496346,9 L15.5012381,9 C15.7769523,9 16,9.22390409 16,9.5 C16,9.77609591 15.7768919,10 15.5011777,10 L15.5011777,10 Z" id="Path" fill="#F2F2F6"></path>
                <path d="M15.5011777,7 C15.2254636,7 15,6.77609591 15,6.5 C15,6.22390409 15.2206318,6 15.496346,6 L15.5012381,6 C15.7769523,6 16,6.22390409 16,6.5 C16,6.77609591 15.7768919,7 15.5011777,7 L15.5011777,7 Z" id="Path" fill="#FFFFFF"></path>
                <path d="M15.5011777,13 C15.2254636,13 15,12.7760959 15,12.5 C15,12.2239041 15.2206318,12 15.496346,12 L15.5012381,12 C15.7769523,12 16,12.2239041 16,12.5 C16,12.7760959 15.7768919,13 15.5011777,13 L15.5011777,13 Z" id="Path" fill="#FFFFFF"></path>
                <polygon id="Path" fill="#F2F2F6" points="0 22.8438831 1.25465619 24 37 24 37 20 0.982499018 20"></polygon>
                <path d="M0,20.0000848 L0,24 L1,24 C0.881490622,23.5066751 0.815251728,22.966815 0.815251728,22.4 L0.815251728,20 L0,20 L0,20.0000848 Z" id="Path" fill="#E1E1E6"></path>
            </g>
        </g>
    </g>
</svg>