<?xml version="1.0" encoding="UTF-8"?>
<svg width="42px" height="42px" viewBox="0 0 42 42" version="1.1" xmlns="http://www.w3.org/2000/svg" xmlns:xlink="http://www.w3.org/1999/xlink">
    <!-- Generator: Sketch 64 (93537) - https://sketch.com -->
    <title>whatsapp</title>
    <desc>Created with Sketch.</desc>
    <g id="Page-1" stroke="none" stroke-width="1" fill="none" fill-rule="evenodd">
        <g id="Desktop-HD-Copy" transform="translate(-693.000000, -11364.000000)" fill-rule="nonzero">
            <g id="whatsapp" transform="translate(693.000000, 11364.000000)">
                <path d="M35.9095532,6.03575 C31.9196029,2.17875 26.6696682,0 21.0784878,0 C5.03118741,0 -5.04518723,17.38625 2.96796307,31.2165 L0,42 L11.0861121,39.109 C15.916052,41.71825 19.8727528,41.48725 21.0889876,41.64125 C39.6965061,41.64125 48.9591409,19.12925 35.8833036,6.104 L35.9095532,6.03575 Z" id="Path" fill="#ECEFF1"></path>
                <path d="M20.5011379,38 L20.4905706,37.998231 L20.4623912,37.998231 C14.8582229,37.998231 11.2776842,35.3323752 10.9254423,35.1784738 L4.32090705,36.9032312 L6.09092251,30.455292 L5.66999346,29.7919237 C3.92639615,27.0040082 3,23.7933059 3,20.4870786 C3,4.93242029 21.9241951,-2.84579337 32.8753951,8.14842949 C43.8001771,19.0276685 36.1301101,38 20.5011379,38 Z" id="Path" fill="#4CAF50"></path>
                <path d="M29.9391597,25.1976389 L29.9235965,25.3315009 C29.4030946,25.0637769 26.8680251,23.7840559 26.3959419,23.6073581 C25.3359163,23.2022023 25.6350752,23.5431043 23.5997569,25.9490511 C23.2971394,26.2970923 22.9962512,26.3238647 22.4826662,26.0829131 C21.9638935,25.815189 20.298633,25.2529685 18.3272966,23.432445 C16.7917293,22.0135076 15.7611008,20.2733013 15.4567541,19.7378532 C14.9500861,18.8347308 16.0101117,18.7062232 16.975029,16.8214459 C17.1479532,16.4466323 17.0597619,16.1521358 16.9317979,15.8861966 C16.8021047,15.6184726 15.769747,12.9947769 15.3374364,11.9488683 C14.9224182,10.9065294 14.4952953,11.0386066 14.1753854,11.0386066 C13.1793418,10.9493652 12.4513307,10.9636438 11.8097818,11.652587 C9.01878443,14.8188701 9.72258611,18.0851034 12.1106699,21.5583767 C16.803834,27.8980821 19.3043186,29.0653589 23.8764357,30.6859818 C25.1111148,31.0911375 26.2368516,31.0340231 27.1274115,30.9019459 C28.1199967,30.7395266 30.1829829,29.6150856 30.6135643,28.3567826 C31.0545211,27.0984796 31.0545211,26.0543558 30.9248279,25.8134042 C30.796864,25.5724526 30.4579325,25.4385905 29.9391597,25.1976389 L29.9391597,25.1976389 Z" id="Path" fill="#FAFAFA"></path>
            </g>
        </g>
    </g>
</svg>